<svg id="svg" xmlns="http://www.w3.org/2000/svg" xmlns:xlink="http://www.w3.org/1999/xlink" width="400" height="273.12228429546866" viewBox="0, 0, 400,273.12228429546866"><g id="svgg"><path id="path0" d="M315.829 2.467 C 312.665 3.421,311.584 4.071,309.241 6.422 C 308.136 7.531,305.897 10.453,305.897 10.786 C 305.897 10.838,305.523 11.701,305.065 12.703 C 303.213 16.760,302.181 20.874,301.181 28.181 C 300.630 32.205,300.976 51.465,301.676 55.742 C 301.810 56.561,302.099 58.401,302.319 59.831 C 303.644 68.458,309.273 75.865,320.919 84.309 C 323.047 85.852,327.921 88.889,328.269 88.889 C 328.391 88.889,328.492 89.001,328.492 89.137 C 328.492 89.274,328.597 89.385,328.727 89.385 C 328.915 89.385,331.821 90.973,332.188 91.277 C 332.240 91.321,332.074 91.667,331.818 92.047 C 331.214 92.944,330.790 93.639,330.565 94.103 C 330.465 94.308,330.014 95.057,329.562 95.767 C 329.110 96.477,328.740 97.111,328.740 97.175 C 328.740 97.239,328.170 98.278,327.473 99.484 C 322.557 107.993,316.947 121.157,313.100 133.209 C 310.348 141.832,306.752 155.323,306.018 159.777 C 305.928 160.323,305.478 162.725,305.018 165.115 C 303.189 174.605,301.148 187.618,300.792 192.055 C 300.507 195.595,299.958 201.195,299.708 203.104 C 299.081 207.892,298.925 213.082,299.381 214.010 C 301.457 218.237,309.953 220.564,314.377 218.117 C 314.740 217.917,315.215 217.753,315.432 217.753 C 315.650 217.753,315.829 217.641,315.829 217.505 C 315.829 217.368,315.996 217.256,316.201 217.256 C 316.406 217.256,316.574 217.145,316.574 217.008 C 316.574 216.872,316.713 216.758,316.884 216.756 C 317.193 216.752,318.021 216.098,319.947 214.336 C 329.037 206.018,335.909 184.451,340.892 148.603 C 341.643 143.198,342.939 130.605,343.141 126.754 C 343.760 114.890,343.902 111.863,344.135 105.525 C 344.273 101.769,344.385 98.343,344.384 97.911 C 344.383 97.411,344.495 97.152,344.693 97.197 C 346.314 97.566,346.617 97.670,346.617 97.858 C 346.617 97.978,346.785 98.076,346.989 98.076 C 347.844 98.076,347.261 97.371,345.878 96.733 L 344.393 96.048 344.530 88.806 C 344.762 76.586,344.771 76.384,345.121 75.667 C 345.305 75.292,345.549 74.984,345.664 74.984 C 345.778 74.984,345.872 74.874,345.872 74.738 C 345.872 74.603,346.235 74.006,346.679 73.412 C 347.123 72.818,348.101 71.459,348.852 70.393 C 350.498 68.057,356.762 59.877,358.196 58.191 C 358.761 57.527,360.325 55.644,361.672 54.007 C 363.020 52.369,364.289 50.854,364.494 50.640 C 364.699 50.426,365.537 49.478,366.356 48.534 C 367.176 47.590,368.544 46.106,369.398 45.236 C 370.251 44.366,370.950 43.593,370.950 43.520 C 370.950 43.446,371.732 42.602,372.688 41.645 C 373.644 40.687,374.426 39.862,374.426 39.812 C 374.426 39.762,374.814 39.303,375.288 38.793 C 377.585 36.319,378.150 35.651,378.150 35.413 C 378.150 35.271,377.638 35.652,377.011 36.261 C 376.055 37.191,370.572 42.735,369.504 43.853 C 369.324 44.042,369.066 44.196,368.931 44.196 C 368.796 44.196,368.759 44.315,368.850 44.461 C 368.940 44.607,368.779 44.787,368.492 44.863 C 368.205 44.938,367.967 45.126,367.963 45.280 C 367.959 45.435,366.981 46.585,365.790 47.837 C 363.409 50.339,361.857 52.060,358.777 55.618 C 357.654 56.915,356.441 58.312,356.083 58.721 C 354.879 60.098,350.953 64.913,349.604 66.667 C 348.869 67.623,348.147 68.516,347.998 68.653 C 347.849 68.790,347.547 69.181,347.327 69.522 C 347.106 69.863,346.395 70.813,345.747 71.633 L 344.569 73.122 344.705 68.901 C 345.609 40.848,341.790 17.008,335.159 9.328 C 332.169 5.865,329.227 3.731,326.908 3.342 C 326.194 3.222,324.163 2.640,323.277 2.302 C 321.613 1.666,318.235 1.740,315.829 2.467 M319.926 7.166 C 320.062 7.245,320.311 7.331,320.478 7.357 C 320.645 7.382,321.260 7.569,321.844 7.773 C 322.427 7.976,323.402 8.291,324.008 8.472 C 326.456 9.203,331.260 14.809,331.638 17.376 C 331.668 17.578,331.804 17.781,331.940 17.827 C 332.077 17.872,332.127 18.070,332.051 18.266 C 331.976 18.462,332.038 18.622,332.189 18.622 C 332.341 18.622,332.446 18.706,332.424 18.808 C 332.402 18.911,332.514 19.310,332.673 19.696 C 333.597 21.934,335.429 30.124,335.933 34.264 C 336.913 42.305,337.013 57.214,336.184 71.633 C 336.050 73.954,335.881 78.137,335.807 80.927 L 335.672 86.000 334.442 87.879 C 333.765 88.912,333.175 89.866,333.130 89.999 C 333.085 90.131,332.470 89.824,331.763 89.316 C 331.055 88.808,330.404 88.392,330.315 88.392 C 330.105 88.392,326.790 86.167,326.154 85.599 C 325.886 85.360,325.530 85.164,325.362 85.164 C 325.194 85.164,325.020 85.074,324.974 84.963 C 324.929 84.852,324.221 84.271,323.402 83.672 C 322.582 83.073,321.784 82.465,321.627 82.322 C 321.471 82.178,320.801 81.614,320.138 81.068 C 313.410 75.525,307.968 68.192,306.411 62.572 C 304.461 55.536,304.461 34.562,306.410 23.960 C 308.238 14.020,311.083 8.699,315.327 7.281 C 316.217 6.984,319.474 6.902,319.926 7.166 M285.351 31.212 C 285.043 31.271,284.792 31.411,284.792 31.523 C 284.792 31.635,284.429 31.795,283.985 31.879 C 283.541 31.964,282.872 32.193,282.497 32.388 C 282.122 32.584,280.837 33.035,279.641 33.390 C 278.446 33.746,277.244 34.146,276.971 34.279 C 276.463 34.527,272.823 35.772,269.274 36.913 C 268.181 37.264,267.176 37.638,267.039 37.745 C 266.903 37.851,265.562 38.299,264.060 38.741 C 262.557 39.182,261.217 39.629,261.080 39.734 C 260.768 39.975,256.428 41.329,256.176 41.265 C 256.074 41.238,255.990 41.313,255.990 41.430 C 255.990 41.548,255.068 41.903,253.942 42.220 C 252.815 42.537,251.670 42.932,251.397 43.098 C 251.124 43.264,250.230 43.584,249.410 43.808 C 248.591 44.032,247.697 44.324,247.424 44.458 C 246.895 44.717,242.267 46.280,238.982 47.311 C 237.890 47.654,236.785 48.053,236.527 48.199 C 236.270 48.344,235.166 48.731,234.074 49.058 C 232.982 49.385,231.964 49.746,231.811 49.862 C 231.658 49.978,230.639 50.329,229.547 50.642 C 228.454 50.955,227.449 51.298,227.312 51.404 C 227.176 51.509,226.058 51.891,224.829 52.252 C 223.600 52.613,222.315 53.059,221.974 53.243 C 221.633 53.427,220.627 53.777,219.739 54.020 C 218.852 54.264,217.902 54.601,217.629 54.770 C 217.356 54.938,216.406 55.274,215.518 55.515 C 214.631 55.757,213.848 56.036,213.779 56.136 C 213.710 56.237,212.593 56.621,211.296 56.991 C 210.000 57.361,208.827 57.751,208.690 57.858 C 208.554 57.964,207.436 58.355,206.207 58.726 C 204.978 59.096,203.861 59.488,203.724 59.596 C 203.588 59.704,202.806 59.982,201.986 60.215 C 201.167 60.448,200.161 60.791,199.752 60.978 C 198.936 61.350,196.387 62.240,193.296 63.232 C 192.204 63.583,191.175 63.978,191.010 64.110 C 190.846 64.243,190.594 64.279,190.452 64.190 C 190.309 64.102,190.192 64.128,190.192 64.247 C 190.192 64.366,189.271 64.727,188.144 65.050 C 187.017 65.372,186.040 65.710,185.971 65.802 C 185.903 65.893,185.121 66.203,184.233 66.491 C 181.365 67.421,178.913 68.284,178.150 68.631 C 177.741 68.818,176.735 69.161,175.916 69.394 C 175.096 69.627,174.314 69.907,174.178 70.016 C 174.041 70.126,173.091 70.462,172.067 70.764 C 171.043 71.065,170.093 71.401,169.957 71.511 C 169.820 71.620,169.038 71.901,168.218 72.136 C 167.399 72.370,166.617 72.645,166.480 72.747 C 166.344 72.849,165.618 73.125,164.867 73.360 C 164.115 73.595,163.054 73.983,162.508 74.222 C 161.962 74.462,160.956 74.806,160.273 74.988 C 159.590 75.170,158.808 75.456,158.535 75.623 C 158.046 75.922,155.150 76.816,154.963 76.726 C 154.910 76.701,154.798 76.789,154.714 76.923 C 154.631 77.056,154.004 77.338,153.321 77.549 C 152.638 77.760,151.186 78.285,150.093 78.715 C 149.001 79.144,147.604 79.654,146.989 79.847 C 146.375 80.040,145.649 80.304,145.376 80.434 C 145.102 80.563,144.097 80.969,143.141 81.335 C 141.616 81.919,140.933 82.200,138.672 83.170 C 138.399 83.287,137.393 83.742,136.437 84.180 C 135.481 84.618,133.973 85.308,133.085 85.712 C 132.197 86.117,130.911 86.718,130.226 87.048 C 129.541 87.378,128.843 87.647,128.674 87.647 C 128.506 87.647,128.367 87.759,128.367 87.896 C 128.367 88.032,128.228 88.144,128.057 88.145 C 127.775 88.146,126.799 88.614,124.767 89.721 C 124.358 89.945,123.883 90.128,123.712 90.129 C 123.541 90.130,123.402 90.216,123.402 90.320 C 123.402 90.424,122.983 90.700,122.471 90.933 C 121.534 91.359,120.156 92.134,119.926 92.365 C 119.857 92.433,119.550 92.629,119.243 92.800 C 118.935 92.970,118.433 93.250,118.125 93.420 C 117.818 93.591,117.511 93.790,117.443 93.863 C 117.374 93.936,116.760 94.351,116.077 94.787 C 115.394 95.222,114.500 95.872,114.091 96.232 C 113.681 96.591,113.122 97.070,112.849 97.295 C 110.566 99.176,108.765 102.130,108.567 104.323 C 108.495 105.114,108.368 105.719,108.284 105.668 C 108.156 105.591,105.408 105.303,103.672 105.185 C 103.330 105.162,103.135 104.904,103.014 104.313 C 102.354 101.083,99.305 100.663,96.380 103.399 C 95.417 104.299,95.055 104.490,94.453 104.414 C 91.566 104.048,80.201 103.879,75.714 104.135 L 73.836 104.241 75.004 100.227 C 76.281 95.842,77.444 92.077,78.238 89.758 C 79.281 86.714,82.012 79.227,83.219 76.102 C 86.572 67.423,86.591 66.073,83.366 65.693 C 82.278 65.565,78.331 67.620,77.467 68.765 C 77.399 68.856,76.449 69.616,75.357 70.455 C 71.204 73.643,70.586 74.153,68.679 75.971 C 65.485 79.015,57.127 87.539,55.000 89.920 C 49.734 95.815,42.857 104.293,40.347 107.984 C 39.938 108.586,39.212 109.638,38.734 110.321 C 38.256 111.005,37.750 111.742,37.610 111.958 C 37.469 112.175,36.621 113.470,35.725 114.836 C 33.966 117.514,32.704 119.652,31.034 122.781 C 30.451 123.873,29.655 125.134,29.264 125.583 C 28.796 126.120,28.554 126.673,28.554 127.204 C 28.554 127.646,28.397 128.232,28.206 128.505 C 26.796 130.519,21.182 146.296,20.502 150.155 C 20.146 152.177,20.042 152.638,19.735 153.569 C 19.051 155.640,17.084 166.841,16.639 171.198 C 16.486 172.700,16.326 174.181,16.284 174.488 C 16.242 174.795,16.337 175.047,16.494 175.047 C 16.806 175.047,17.629 172.262,17.629 171.206 C 17.629 170.845,17.948 169.188,18.337 167.522 C 18.727 165.857,19.243 163.600,19.485 162.508 C 21.839 151.863,30.215 129.712,31.589 130.498 C 31.763 130.597,32.579 131.153,33.403 131.731 C 34.226 132.310,35.288 133.004,35.762 133.274 C 36.235 133.543,37.573 134.352,38.734 135.071 C 43.950 138.304,49.106 140.829,56.114 143.584 C 61.279 145.614,61.168 145.571,61.390 145.633 C 61.493 145.662,61.605 145.708,61.639 145.736 C 61.673 145.763,61.868 145.824,62.073 145.870 C 62.278 145.916,63.619 146.338,65.053 146.807 C 66.487 147.277,68.386 147.867,69.274 148.120 L 70.888 148.579 72.078 150.950 C 73.458 153.700,74.818 155.935,75.350 156.325 C 75.554 156.475,75.652 156.668,75.566 156.753 C 75.392 156.927,75.930 157.666,76.230 157.666 C 76.590 157.666,76.702 156.936,76.391 156.618 C 76.220 156.443,75.924 155.909,75.733 155.431 C 75.542 154.953,75.313 154.507,75.224 154.438 C 75.079 154.327,72.998 149.392,72.998 149.161 C 72.998 149.108,73.641 149.204,74.426 149.372 C 75.211 149.541,75.854 149.696,75.854 149.717 C 75.854 149.737,76.189 149.803,76.598 149.864 C 77.516 149.998,78.336 150.166,78.336 150.219 C 78.336 150.241,78.560 150.290,78.833 150.328 C 79.106 150.367,79.832 150.480,80.447 150.580 C 81.061 150.679,81.844 150.799,82.185 150.845 C 82.526 150.890,83.141 150.986,83.551 151.057 C 85.117 151.329,87.705 151.626,89.013 151.684 C 89.590 151.710,88.534 152.329,84.326 154.434 C 81.338 155.928,78.834 157.210,78.760 157.284 C 78.475 157.569,78.932 157.687,79.368 157.441 C 79.620 157.299,80.552 156.893,81.440 156.540 C 82.328 156.187,84.060 155.411,85.289 154.816 C 91.371 151.872,91.021 151.988,93.482 152.094 C 97.715 152.275,103.420 152.274,106.145 152.091 C 107.647 151.990,109.379 151.877,109.994 151.840 C 110.608 151.803,111.558 151.700,112.104 151.611 C 112.651 151.522,113.600 151.397,114.215 151.333 C 114.829 151.269,115.611 151.171,115.953 151.115 C 116.294 151.060,117.068 150.945,117.673 150.861 C 118.278 150.776,119.172 150.607,119.659 150.484 C 121.255 150.082,123.127 149.680,123.705 149.615 C 124.422 149.535,126.473 149.068,128.864 148.440 C 129.888 148.171,131.006 147.919,131.347 147.879 C 131.688 147.840,133.253 147.440,134.823 146.990 C 136.394 146.540,137.982 146.135,138.353 146.090 C 139.008 146.010,145.086 144.266,160.025 139.873 C 163.985 138.708,167.368 137.638,167.542 137.495 C 167.716 137.352,167.929 137.306,168.015 137.393 C 168.102 137.479,168.295 137.451,168.444 137.330 C 168.593 137.208,170.503 136.580,172.688 135.933 C 174.873 135.286,176.772 134.672,176.909 134.567 C 177.045 134.462,178.386 134.016,179.888 133.575 C 181.390 133.133,182.731 132.687,182.868 132.582 C 183.004 132.478,183.954 132.145,184.978 131.844 C 186.002 131.542,186.952 131.207,187.089 131.099 C 187.225 130.991,188.175 130.655,189.199 130.354 C 190.223 130.052,191.173 129.722,191.310 129.621 C 191.446 129.519,192.564 129.133,193.793 128.763 C 195.022 128.392,196.363 127.938,196.772 127.753 C 197.182 127.569,198.187 127.225,199.007 126.991 C 199.826 126.756,200.552 126.492,200.621 126.405 C 200.689 126.318,201.304 126.059,201.986 125.830 C 204.403 125.019,206.217 124.365,206.952 124.039 C 207.587 123.757,208.107 123.583,209.932 123.042 C 210.068 123.001,210.292 122.945,210.428 122.916 C 210.565 122.887,210.788 122.775,210.925 122.668 C 211.061 122.562,211.788 122.283,212.539 122.050 C 213.290 121.816,214.240 121.475,214.649 121.292 C 216.162 120.617,219.478 119.429,219.851 119.429 C 220.063 119.429,220.236 119.326,220.236 119.200 C 220.236 119.075,220.599 118.894,221.043 118.800 C 221.487 118.705,222.297 118.428,222.843 118.185 C 223.389 117.941,224.339 117.598,224.953 117.422 C 225.568 117.246,226.291 116.956,226.561 116.776 C 226.830 116.596,227.199 116.449,227.381 116.449 C 227.563 116.449,228.181 116.246,228.754 115.996 C 229.326 115.747,230.633 115.233,231.657 114.854 C 232.682 114.474,233.731 114.053,233.989 113.917 C 234.246 113.782,235.029 113.503,235.727 113.297 C 236.425 113.091,237.107 112.837,237.244 112.732 C 237.381 112.627,237.939 112.401,238.485 112.228 C 239.032 112.056,239.590 111.833,239.727 111.732 C 239.863 111.631,240.405 111.410,240.930 111.240 C 241.456 111.071,242.182 110.778,242.544 110.589 C 242.907 110.400,243.376 110.244,243.588 110.244 C 243.800 110.243,244.079 110.144,244.209 110.024 C 244.338 109.904,244.891 109.667,245.438 109.498 C 245.984 109.329,246.766 109.043,247.176 108.863 C 247.585 108.682,248.647 108.244,249.534 107.888 C 250.422 107.532,251.372 107.139,251.645 107.014 C 252.989 106.403,255.261 105.525,255.500 105.525 C 255.745 105.525,256.447 105.239,258.970 104.113 C 259.448 103.900,260.155 103.572,260.542 103.384 C 260.928 103.196,261.358 103.042,261.497 103.042 C 261.636 103.042,262.102 102.882,262.532 102.687 C 262.963 102.491,264.097 102.030,265.053 101.661 C 266.625 101.055,268.163 100.419,269.522 99.814 C 271.819 98.791,272.443 98.555,272.557 98.669 C 272.762 98.874,271.687 103.086,270.539 106.572 C 269.675 109.199,269.585 109.638,270.008 109.186 C 270.733 108.410,271.218 107.414,270.918 107.314 C 270.782 107.269,270.880 107.022,271.136 106.765 C 271.552 106.350,274.115 99.004,274.115 98.229 C 274.115 98.058,274.758 97.659,275.543 97.343 C 277.082 96.721,277.807 96.414,279.640 95.605 C 280.289 95.318,281.155 95.017,281.564 94.935 C 281.974 94.853,282.309 94.693,282.309 94.580 C 282.309 94.467,282.700 94.300,283.178 94.211 C 283.656 94.121,284.047 93.948,284.047 93.827 C 284.047 93.706,284.165 93.606,284.309 93.606 C 284.546 93.606,285.444 93.239,287.690 92.221 C 288.123 92.024,288.821 91.795,289.242 91.711 C 289.662 91.627,290.006 91.460,290.006 91.341 C 290.006 91.221,290.124 91.124,290.268 91.124 C 290.505 91.124,291.398 90.757,293.644 89.740 C 294.074 89.545,294.549 89.385,294.699 89.385 C 294.849 89.385,294.972 89.288,294.972 89.168 C 294.972 89.049,295.330 88.879,295.767 88.792 C 296.205 88.704,297.294 88.290,298.188 87.871 C 302.021 86.075,302.827 85.716,303.414 85.545 C 304.132 85.335,306.974 84.074,307.877 83.564 C 308.928 82.970,308.752 82.660,307.592 83.064 C 306.635 83.398,306.128 83.606,304.283 84.425 C 304.010 84.547,303.060 84.937,302.173 85.293 C 301.285 85.649,300.204 86.102,299.772 86.300 C 299.339 86.497,298.640 86.728,298.220 86.812 C 297.799 86.896,297.455 87.048,297.455 87.150 C 297.455 87.251,296.924 87.479,296.276 87.656 C 295.627 87.833,294.876 88.127,294.606 88.309 C 294.337 88.492,293.946 88.644,293.737 88.649 C 293.529 88.654,292.911 88.873,292.365 89.137 C 291.819 89.401,291.282 89.621,291.172 89.625 C 291.062 89.630,290.475 89.860,289.868 90.137 C 289.261 90.413,288.427 90.707,288.015 90.789 C 287.602 90.872,287.206 91.034,287.135 91.149 C 287.064 91.264,286.536 91.484,285.961 91.638 C 285.386 91.791,284.441 92.132,283.861 92.396 C 283.281 92.659,282.471 92.941,282.061 93.023 C 281.651 93.105,281.316 93.259,281.316 93.366 C 281.316 93.473,280.757 93.704,280.074 93.879 C 279.392 94.054,278.833 94.279,278.833 94.379 C 278.833 94.478,278.470 94.638,278.026 94.732 C 277.582 94.827,276.733 95.123,276.140 95.390 C 274.764 96.009,274.801 96.135,275.497 93.234 C 277.850 83.419,277.894 74.246,275.628 66.070 C 274.088 60.512,269.711 56.597,264.060 55.722 C 263.513 55.638,262.989 55.521,262.895 55.463 C 262.628 55.300,258.218 55.321,257.107 55.491 C 256.561 55.575,255.800 55.686,255.416 55.739 C 252.197 56.177,246.447 58.327,242.831 60.446 C 241.670 61.126,240.664 61.753,240.596 61.840 C 240.528 61.928,240.345 62.043,240.191 62.098 C 236.558 63.381,227.888 74.839,224.921 82.276 L 224.543 83.226 224.112 80.160 C 223.876 78.474,223.420 75.642,223.098 73.867 C 222.777 72.092,222.438 70.193,222.345 69.647 C 221.882 66.919,219.910 68.078,219.647 71.233 C 219.096 77.848,216.092 82.855,210.247 86.902 C 209.664 87.305,208.908 87.869,208.566 88.154 L 207.945 88.672 208.566 88.503 C 208.908 88.410,209.363 88.179,209.579 87.990 C 209.794 87.802,210.091 87.647,210.238 87.647 C 211.724 87.647,218.182 80.972,219.753 77.813 L 220.433 76.444 220.639 79.377 C 220.752 80.989,220.841 84.935,220.836 88.144 L 220.827 93.979 219.884 97.207 C 219.366 98.982,218.462 102.318,217.876 104.621 L 216.811 108.807 215.730 109.431 C 215.136 109.773,214.286 110.264,213.842 110.520 C 211.968 111.604,209.858 112.797,208.070 113.782 C 207.592 114.046,207.094 114.363,206.965 114.486 C 206.835 114.610,206.528 114.711,206.282 114.711 C 206.036 114.711,205.835 114.796,205.835 114.899 C 205.835 115.002,205.472 115.245,205.028 115.438 C 204.584 115.632,203.804 116.050,203.295 116.368 C 202.785 116.686,202.208 116.946,202.012 116.946 C 201.816 116.946,201.618 117.030,201.573 117.132 C 201.462 117.380,198.834 118.684,198.444 118.684 C 198.276 118.684,198.138 118.769,198.138 118.872 C 198.138 118.975,197.775 119.211,197.331 119.397 C 196.887 119.582,196.101 119.945,195.585 120.202 C 195.069 120.460,194.482 120.670,194.282 120.670 C 194.081 120.670,193.916 120.754,193.916 120.857 C 193.915 120.959,193.385 121.254,192.736 121.512 C 192.088 121.770,191.223 122.126,190.813 122.303 C 188.604 123.260,186.943 123.898,186.662 123.900 C 186.487 123.901,186.022 124.069,185.630 124.274 C 182.589 125.860,175.242 127.044,172.701 126.358 C 172.284 126.245,171.567 126.089,171.107 126.010 C 170.647 125.932,169.950 125.701,169.558 125.498 C 169.165 125.296,168.812 125.160,168.773 125.197 C 168.237 125.703,163.693 121.145,162.157 118.560 C 158.567 112.517,158.061 109.061,159.894 103.098 C 162.428 94.850,165.984 90.458,172.812 87.139 C 182.801 82.283,188.924 85.051,190.564 95.163 C 191.021 97.983,191.039 99.068,190.627 99.070 C 190.456 99.071,190.022 99.226,189.662 99.414 C 189.302 99.602,188.408 99.951,187.675 100.190 C 186.943 100.429,186.232 100.708,186.096 100.810 C 185.959 100.912,185.177 101.187,184.358 101.421 C 183.538 101.655,182.756 101.938,182.619 102.048 C 182.483 102.159,181.701 102.441,180.881 102.676 C 180.062 102.910,179.280 103.185,179.143 103.287 C 179.007 103.389,178.281 103.661,177.529 103.891 C 176.778 104.121,175.953 104.426,175.695 104.568 C 175.437 104.710,174.655 104.995,173.957 105.201 C 173.259 105.407,172.576 105.665,172.439 105.775 C 172.303 105.884,171.521 106.166,170.701 106.400 C 169.882 106.634,169.100 106.909,168.963 107.011 C 168.827 107.113,168.101 107.389,167.349 107.624 C 166.598 107.859,165.649 108.196,165.239 108.372 C 164.829 108.548,163.880 108.889,163.128 109.128 C 162.377 109.367,161.651 109.649,161.515 109.754 C 161.378 109.859,160.791 110.072,160.211 110.227 C 159.631 110.383,159.156 110.617,159.156 110.748 C 159.156 111.069,157.986 111.384,171.228 107.499 C 177.766 105.581,183.501 103.959,183.971 103.894 C 186.097 103.603,193.310 101.258,193.917 100.661 C 194.836 99.756,194.861 91.879,193.955 88.765 C 192.528 83.861,188.408 79.479,185.206 79.458 C 184.853 79.456,184.484 79.373,184.386 79.275 C 184.106 78.995,180.274 78.968,178.895 79.236 C 178.212 79.369,177.269 79.530,176.800 79.594 C 175.370 79.790,172.563 80.735,170.167 81.828 C 169.737 82.024,169.316 82.185,169.232 82.185 C 169.147 82.185,168.343 82.632,167.444 83.178 C 166.545 83.724,165.709 84.171,165.586 84.171 C 165.463 84.171,165.363 84.283,165.363 84.420 C 165.363 84.556,165.205 84.668,165.011 84.668 C 164.818 84.668,164.622 84.757,164.577 84.865 C 164.531 84.974,163.942 85.481,163.267 85.992 C 160.761 87.889,155.928 93.195,155.928 94.048 C 155.928 94.182,155.767 94.424,155.570 94.587 C 154.956 95.097,152.049 101.347,151.639 103.042 C 149.987 109.862,150.131 112.605,152.399 117.443 C 152.751 118.194,153.049 118.864,153.062 118.932 C 153.452 121.068,160.574 128.864,162.136 128.864 C 162.272 128.864,162.384 128.994,162.384 129.154 C 162.384 129.313,162.450 129.377,162.532 129.295 C 162.613 129.214,163.070 129.367,163.547 129.635 C 164.024 129.903,165.321 130.384,166.429 130.704 C 168.538 131.312,168.504 131.462,166.201 131.731 C 165.911 131.765,163.900 132.302,161.732 132.924 C 159.564 133.546,157.399 134.122,156.921 134.204 C 156.443 134.287,155.102 134.611,153.942 134.925 C 151.247 135.654,148.251 136.374,147.601 136.448 C 147.323 136.480,146.429 136.673,145.615 136.878 C 143.172 137.492,140.442 138.124,139.913 138.198 C 139.640 138.236,138.299 138.499,136.934 138.782 C 135.568 139.064,133.836 139.414,133.085 139.560 C 132.334 139.705,131.290 139.936,130.764 140.072 C 130.239 140.208,129.752 140.263,129.683 140.194 C 129.614 140.125,129.283 140.173,128.948 140.301 C 128.351 140.528,127.460 140.688,125.555 140.913 C 125.033 140.974,124.524 141.075,124.424 141.137 C 124.324 141.198,123.746 141.312,123.139 141.390 C 122.118 141.520,121.027 141.686,119.801 141.898 C 119.335 141.979,118.301 142.130,116.574 142.369 C 116.164 142.426,115.102 142.605,114.215 142.768 C 113.327 142.932,112.266 143.105,111.856 143.154 C 110.269 143.342,108.846 143.538,108.132 143.664 C 107.326 143.807,107.253 143.852,111.290 141.712 C 112.207 141.225,113.286 140.593,113.687 140.308 C 114.088 140.023,114.594 139.789,114.812 139.789 C 115.030 139.789,115.208 139.698,115.208 139.587 C 115.208 139.476,115.599 139.232,116.077 139.044 C 116.555 138.857,116.946 138.612,116.946 138.501 C 116.946 138.390,117.114 138.299,117.318 138.299 C 117.523 138.299,117.691 138.187,117.691 138.051 C 117.691 137.914,117.914 137.803,118.187 137.803 C 118.461 137.803,118.684 137.691,118.684 137.554 C 118.684 137.418,118.804 137.306,118.950 137.306 C 119.096 137.306,119.702 136.971,120.298 136.561 C 120.893 136.151,121.440 135.816,121.513 135.816 C 121.586 135.816,122.599 135.202,123.763 134.451 C 124.927 133.700,125.993 133.085,126.131 133.085 C 126.268 133.085,126.381 132.973,126.381 132.837 C 126.381 132.700,126.549 132.588,126.754 132.588 C 126.958 132.588,127.126 132.495,127.126 132.380 C 127.126 132.265,127.377 132.056,127.685 131.914 C 128.234 131.661,136.053 126.152,136.697 125.564 C 136.879 125.399,137.440 124.929,137.944 124.519 C 144.537 119.163,149.164 112.108,146.985 110.731 C 146.783 110.603,146.702 110.496,146.805 110.494 C 147.152 110.487,145.635 109.066,144.755 108.574 C 143.744 108.008,141.779 107.339,140.534 107.137 C 140.056 107.060,139.497 106.947,139.292 106.886 C 138.674 106.703,135.446 106.522,130.726 106.406 C 126.524 106.303,125.646 106.236,123.960 105.891 C 123.585 105.814,122.899 105.697,122.436 105.631 C 121.973 105.565,121.511 105.460,121.410 105.397 C 121.308 105.334,120.793 105.214,120.265 105.131 C 119.737 105.047,119.193 104.908,119.056 104.821 C 118.920 104.734,118.724 104.647,118.622 104.628 C 118.520 104.609,118.380 104.565,118.312 104.531 C 118.243 104.497,118.104 104.446,118.001 104.417 C 117.467 104.266,116.746 103.901,116.107 103.458 L 115.393 102.963 116.353 102.133 C 116.881 101.677,117.390 101.304,117.484 101.304 C 117.578 101.304,117.807 101.164,117.993 100.993 C 118.321 100.692,118.643 100.493,120.270 99.583 C 121.738 98.763,124.525 97.368,126.257 96.587 C 127.213 96.156,128.454 95.588,129.015 95.325 C 129.577 95.063,130.191 94.844,130.381 94.840 C 130.571 94.836,130.943 94.668,131.208 94.468 C 131.473 94.267,131.864 94.102,132.077 94.102 C 132.290 94.101,132.761 93.945,133.123 93.756 C 133.485 93.567,134.212 93.274,134.737 93.105 C 135.262 92.935,135.804 92.714,135.940 92.613 C 136.077 92.512,136.636 92.289,137.182 92.117 C 137.728 91.945,138.287 91.718,138.423 91.613 C 138.560 91.509,139.174 91.279,139.789 91.103 C 140.403 90.927,141.127 90.637,141.396 90.457 C 141.665 90.277,142.058 90.130,142.269 90.130 C 142.479 90.130,143.069 89.907,143.578 89.634 C 144.088 89.361,144.673 89.137,144.878 89.137 C 145.083 89.137,145.251 89.031,145.251 88.900 C 145.251 88.770,145.642 88.590,146.120 88.500 C 146.598 88.410,146.989 88.238,146.989 88.116 C 146.989 87.995,147.107 87.896,147.251 87.896 C 147.478 87.896,148.252 87.585,150.341 86.654 C 150.615 86.533,151.397 86.197,152.079 85.908 C 152.762 85.619,153.712 85.203,154.190 84.983 C 154.668 84.763,155.394 84.442,155.804 84.269 C 156.214 84.096,157.107 83.713,157.790 83.419 C 159.521 82.675,159.857 82.531,161.266 81.937 C 161.949 81.649,162.731 81.313,163.004 81.191 C 163.277 81.069,165.009 80.343,166.853 79.578 C 168.696 78.813,170.428 78.085,170.701 77.962 C 170.975 77.839,171.924 77.447,172.812 77.091 C 174.287 76.499,175.325 76.064,176.660 75.478 C 179.017 74.443,179.508 74.240,179.640 74.240 C 179.825 74.240,183.010 72.855,184.564 72.099 C 184.950 71.911,185.399 71.757,185.561 71.757 C 185.722 71.757,186.272 71.533,186.781 71.260 C 187.291 70.987,187.826 70.764,187.971 70.764 C 188.210 70.764,188.919 70.474,191.434 69.352 C 191.912 69.139,192.619 68.811,193.006 68.623 C 193.392 68.435,193.839 68.277,193.999 68.272 C 194.159 68.268,194.736 68.048,195.282 67.784 C 195.829 67.520,196.366 67.300,196.475 67.296 C 196.649 67.289,197.752 66.832,199.503 66.043 C 199.777 65.920,200.726 65.531,201.614 65.177 C 202.502 64.823,203.451 64.433,203.724 64.310 C 203.998 64.187,205.003 63.786,205.959 63.420 C 207.610 62.787,209.019 62.200,210.677 61.454 C 211.086 61.269,211.757 61.036,212.166 60.936 C 212.576 60.835,213.135 60.614,213.408 60.444 C 213.681 60.275,214.268 60.060,214.711 59.967 C 215.155 59.875,215.518 59.705,215.518 59.590 C 215.518 59.475,215.881 59.302,216.325 59.206 C 216.769 59.109,217.353 58.877,217.622 58.690 C 217.891 58.502,218.282 58.348,218.491 58.347 C 218.700 58.346,219.167 58.191,219.529 58.002 C 219.891 57.813,220.618 57.520,221.143 57.350 C 221.668 57.181,222.210 56.960,222.346 56.859 C 222.483 56.758,223.024 56.537,223.550 56.368 C 224.075 56.198,224.801 55.905,225.164 55.716 C 225.526 55.527,225.912 55.372,226.022 55.371 C 226.202 55.369,227.125 54.985,229.299 54.004 C 229.708 53.820,230.574 53.535,231.223 53.372 C 231.872 53.209,232.402 52.977,232.402 52.857 C 232.402 52.737,232.598 52.634,232.837 52.630 C 233.076 52.625,233.718 52.405,234.264 52.142 C 234.811 51.878,235.348 51.658,235.457 51.653 C 235.640 51.646,236.686 51.206,238.771 50.261 C 239.202 50.066,239.626 49.907,239.715 49.907 C 240.004 49.907,243.941 48.338,244.184 48.127 C 244.313 48.013,244.558 47.921,244.726 47.921 C 244.895 47.921,245.347 47.790,245.732 47.631 C 246.116 47.472,246.487 47.323,246.555 47.300 C 246.724 47.243,248.081 46.701,248.541 46.507 C 248.746 46.420,248.970 46.338,249.038 46.324 C 249.106 46.310,249.274 46.232,249.410 46.149 C 249.547 46.067,250.106 45.858,250.652 45.686 C 251.198 45.514,251.757 45.295,251.893 45.200 C 252.209 44.980,254.543 44.081,254.873 44.053 C 255.009 44.041,255.400 43.910,255.742 43.762 C 256.779 43.311,257.346 43.122,257.542 43.164 C 257.644 43.185,257.728 43.100,257.728 42.974 C 257.728 42.849,258.091 42.667,258.535 42.570 C 258.979 42.474,259.562 42.241,259.832 42.054 C 260.101 41.867,260.475 41.713,260.663 41.713 C 260.851 41.713,261.357 41.552,261.787 41.355 C 263.340 40.644,267.161 39.230,267.530 39.230 C 267.738 39.230,267.908 39.127,267.908 39.002 C 267.908 38.876,268.232 38.702,268.629 38.615 C 269.025 38.528,269.775 38.240,270.295 37.974 C 270.815 37.709,271.434 37.492,271.670 37.492 C 271.907 37.492,272.161 37.393,272.236 37.271 C 272.311 37.150,272.681 36.973,273.058 36.879 C 273.892 36.670,277.339 35.361,278.725 34.726 C 279.280 34.472,279.923 34.264,280.153 34.264 C 280.383 34.264,280.571 34.162,280.571 34.036 C 280.571 33.910,280.934 33.730,281.378 33.637 C 282.859 33.323,286.034 31.964,286.034 31.643 C 286.034 31.469,286.173 31.270,286.344 31.201 C 286.721 31.049,286.165 31.055,285.351 31.212 M262.942 60.972 C 263.420 61.059,264.081 61.181,264.412 61.242 C 270.281 62.330,273.976 70.380,274.302 82.788 C 274.541 91.893,273.654 96.540,271.571 97.097 C 270.990 97.252,270.064 97.584,269.513 97.834 C 268.962 98.083,268.180 98.369,267.775 98.468 C 267.370 98.568,266.983 98.728,266.915 98.825 C 266.847 98.922,266.232 99.179,265.549 99.396 C 263.489 100.051,260.630 101.064,259.839 101.419 C 259.429 101.603,258.591 101.895,257.976 102.068 C 257.362 102.242,256.734 102.478,256.581 102.592 C 256.428 102.707,255.701 102.978,254.967 103.195 C 254.232 103.412,253.520 103.679,253.383 103.788 C 253.246 103.898,252.464 104.179,251.645 104.414 C 250.826 104.648,250.020 104.947,249.856 105.079 C 249.691 105.211,249.440 105.247,249.297 105.159 C 249.154 105.071,249.038 105.100,249.038 105.223 C 249.038 105.423,245.558 106.570,245.157 106.502 C 245.069 106.487,244.928 106.579,244.845 106.706 C 244.761 106.832,243.966 107.171,243.079 107.459 C 240.210 108.389,237.758 109.252,236.996 109.600 C 236.586 109.786,235.580 110.123,234.761 110.349 C 233.942 110.574,233.048 110.867,232.775 111.001 C 232.218 111.273,228.098 112.674,225.078 113.618 C 223.985 113.959,222.765 114.418,222.367 114.637 C 221.689 115.011,221.654 115.009,221.809 114.605 C 222.181 113.635,223.712 108.418,223.712 108.120 C 223.712 107.303,227.645 95.938,229.551 91.248 C 230.051 90.019,230.719 88.375,231.036 87.595 C 231.353 86.815,231.842 85.698,232.122 85.112 C 232.402 84.526,233.094 82.930,233.660 81.564 C 235.020 78.282,236.427 75.499,237.796 73.382 C 240.380 69.388,244.288 66.014,248.786 63.893 C 250.085 63.281,251.364 62.663,251.628 62.520 C 254.025 61.224,259.912 60.418,262.942 60.972 M381.006 78.247 C 377.767 78.603,376.606 78.874,375.209 79.604 C 374.846 79.793,374.410 79.948,374.240 79.949 C 374.069 79.950,373.929 80.062,373.929 80.199 C 373.929 80.335,373.706 80.447,373.433 80.447 C 373.160 80.447,372.936 80.559,372.936 80.695 C 372.936 80.832,372.811 80.944,372.657 80.944 C 371.161 80.944,365.932 86.214,363.736 89.936 L 362.898 91.356 362.121 87.826 C 361.059 82.997,359.771 78.747,359.348 78.677 C 358.185 78.483,357.649 78.627,356.897 79.336 L 356.075 80.112 356.069 83.393 C 356.064 86.741,355.747 90.116,355.252 92.117 C 354.605 94.730,351.827 100.420,351.029 100.766 C 350.924 100.811,350.838 101.007,350.838 101.200 C 350.838 101.394,350.739 101.552,350.619 101.552 C 350.498 101.552,350.341 101.775,350.269 102.048 C 350.198 102.322,350.179 102.545,350.228 102.545 C 350.459 102.545,351.583 101.337,351.583 101.089 C 351.583 100.934,351.750 100.807,351.955 100.807 C 352.160 100.807,352.328 100.710,352.328 100.591 C 352.328 100.472,352.756 99.830,353.280 99.163 C 353.803 98.497,354.307 97.784,354.400 97.579 C 354.492 97.374,354.789 96.872,355.060 96.462 C 355.546 95.728,356.195 94.421,357.027 92.506 L 357.451 91.529 357.752 96.479 C 358.077 101.837,358.083 101.709,357.439 103.166 C 354.395 110.051,347.585 136.973,347.943 140.701 C 348.166 143.016,349.640 145.422,351.113 145.874 C 351.439 145.975,351.819 146.139,351.955 146.239 C 354.027 147.753,359.487 144.237,361.185 140.295 C 362.440 137.383,363.752 129.432,364.096 122.657 C 364.169 121.223,364.354 117.759,364.508 114.960 C 364.706 111.365,364.715 108.666,364.537 105.773 L 364.284 101.676 365.756 97.261 C 368.634 88.623,370.935 85.306,376.041 82.431 C 380.050 80.175,386.513 79.953,393.172 81.843 C 394.401 82.192,395.518 82.563,395.655 82.668 C 396.029 82.956,398.330 83.690,398.458 83.562 C 398.701 83.318,397.697 82.635,395.184 81.335 C 393.736 80.586,392.551 80.037,392.551 80.116 C 392.551 80.195,392.412 80.148,392.241 80.011 C 390.815 78.871,384.437 77.870,381.006 78.247 M74.085 83.059 C 72.771 87.557,70.287 97.281,69.488 101.055 C 68.633 105.093,68.666 104.999,68.108 104.999 C 67.419 104.998,65.873 105.219,65.309 105.398 C 65.030 105.486,64.496 105.599,64.121 105.649 C 63.746 105.698,63.439 105.755,63.439 105.776 C 63.439 105.797,63.106 105.868,62.700 105.933 C 62.294 105.999,61.819 106.171,61.645 106.316 C 61.471 106.460,61.328 106.495,61.328 106.394 C 61.328 106.292,61.189 106.319,61.018 106.455 C 60.847 106.590,60.261 106.842,59.714 107.013 C 58.788 107.304,57.584 107.795,55.704 108.646 C 55.274 108.841,54.843 109.001,54.747 109.001 C 54.548 109.001,49.352 111.542,49.162 111.732 C 49.094 111.801,48.703 112.024,48.293 112.228 C 47.883 112.433,47.492 112.656,47.424 112.725 C 47.356 112.794,46.965 113.014,46.555 113.214 C 46.145 113.415,45.343 113.890,44.772 114.269 C 44.201 114.649,43.615 114.960,43.469 114.960 C 43.323 114.960,43.203 115.071,43.203 115.208 C 43.203 115.345,43.092 115.456,42.955 115.456 C 42.819 115.456,42.163 115.847,41.498 116.325 C 40.833 116.803,40.162 117.194,40.008 117.194 C 39.853 117.194,39.723 117.278,39.719 117.381 C 39.715 117.483,39.424 117.776,39.072 118.033 L 38.433 118.499 38.893 117.784 C 40.328 115.557,44.043 110.579,44.800 109.870 C 44.946 109.733,45.505 109.063,46.043 108.380 C 46.581 107.697,47.195 106.959,47.409 106.741 C 47.622 106.522,48.355 105.693,49.038 104.899 C 52.857 100.458,62.649 90.654,66.765 87.151 C 67.486 86.536,68.495 85.642,69.006 85.164 C 70.228 84.020,71.478 82.950,72.484 82.185 C 72.933 81.844,73.650 81.209,74.077 80.775 C 75.087 79.749,75.087 79.628,74.085 83.059 M310.615 81.876 C 310.615 82.024,310.279 82.219,309.870 82.309 C 309.460 82.399,309.125 82.570,309.125 82.688 C 309.125 82.953,310.558 82.477,310.764 82.144 C 310.846 82.012,310.845 81.837,310.764 81.755 C 310.682 81.673,310.615 81.727,310.615 81.876 M335.060 93.917 C 335.005 94.634,334.905 96.707,334.837 98.525 C 334.769 100.342,334.494 104.532,334.226 107.836 C 333.958 111.139,333.617 115.600,333.467 117.749 C 333.318 119.898,332.917 124.125,332.575 127.143 C 332.234 130.162,331.796 134.493,331.602 136.769 C 328.944 167.925,326.290 183.724,321.359 197.741 C 317.301 209.280,313.152 213.340,308.170 210.650 L 306.890 209.958 306.892 205.476 C 306.900 188.310,310.538 160.585,315.228 141.940 C 317.475 133.007,320.310 123.601,322.163 118.932 C 322.353 118.454,323.029 116.723,323.665 115.084 C 326.136 108.717,330.432 99.666,333.799 93.731 C 334.350 92.760,334.484 92.613,334.820 92.613 C 335.077 92.613,335.135 92.931,335.060 93.917 M347.610 98.221 C 347.610 98.659,348.145 98.583,348.298 98.122 C 348.352 97.960,348.220 97.827,348.003 97.827 C 347.787 97.827,347.610 98.004,347.610 98.221 M94.227 105.991 C 94.665 106.019,94.724 106.199,94.724 107.506 C 94.724 111.599,100.830 111.282,102.517 107.101 L 102.833 106.319 104.737 106.422 C 107.812 106.589,108.864 106.728,108.948 106.981 C 109.222 107.803,111.494 109.554,112.849 109.988 C 113.395 110.164,113.982 110.418,114.153 110.553 C 114.323 110.689,114.463 110.736,114.463 110.658 C 114.463 110.581,115.002 110.677,115.662 110.873 C 116.321 111.069,117.354 111.295,117.958 111.376 C 118.562 111.457,119.336 111.566,119.677 111.618 C 122.032 111.981,127.788 112.132,130.106 111.893 C 133.898 111.502,140.154 111.852,140.933 112.499 C 141.123 112.657,141.279 112.714,141.279 112.626 C 141.279 112.537,141.558 112.648,141.899 112.872 C 143.596 113.984,140.373 118.437,134.099 123.650 C 133.360 124.264,132.633 124.886,132.485 125.031 C 132.337 125.177,131.322 125.954,130.230 126.759 C 129.137 127.564,127.965 128.479,127.625 128.792 C 127.285 129.105,126.917 129.361,126.807 129.361 C 126.698 129.361,126.307 129.640,125.938 129.981 C 125.570 130.323,125.128 130.602,124.956 130.602 C 124.784 130.602,124.643 130.696,124.643 130.811 C 124.643 130.926,124.252 131.231,123.774 131.488 C 123.296 131.746,122.905 132.043,122.905 132.148 C 122.905 132.254,122.737 132.340,122.533 132.340 C 122.328 132.340,122.160 132.452,122.160 132.588 C 122.160 132.725,122.049 132.837,121.912 132.837 C 121.776 132.837,121.120 133.228,120.455 133.706 C 119.790 134.184,119.128 134.575,118.985 134.575 C 118.842 134.575,118.688 134.668,118.643 134.782 C 118.539 135.041,115.774 136.809,115.472 136.809 C 115.350 136.809,115.212 136.905,115.167 137.021 C 115.089 137.219,110.547 140.037,110.305 140.037 C 110.244 140.037,109.898 140.248,109.536 140.505 C 109.173 140.762,108.473 141.198,107.979 141.475 C 106.091 142.532,105.893 142.648,105.773 142.769 C 105.705 142.837,105.313 143.061,104.904 143.265 C 104.494 143.469,104.103 143.708,104.035 143.796 C 103.966 143.883,103.268 144.011,102.483 144.080 C 100.739 144.234,100.777 144.730,102.059 138.547 C 103.544 131.381,103.562 130.412,102.307 125.266 C 101.053 120.120,100.833 119.149,100.694 118.120 C 100.458 116.388,99.337 112.394,99.033 112.206 C 98.701 112.001,98.253 114.086,95.833 127.077 C 94.636 133.505,94.637 132.839,95.812 137.952 C 96.342 140.260,96.847 142.625,96.933 143.207 L 97.090 144.267 93.300 144.144 C 87.948 143.969,84.645 143.736,82.682 143.393 C 82.340 143.333,81.457 143.214,80.720 143.129 C 79.982 143.044,79.144 142.927,78.857 142.870 C 78.571 142.812,77.666 142.654,76.847 142.519 C 74.668 142.158,73.912 142.017,73.495 141.896 C 73.290 141.836,72.675 141.717,72.129 141.632 C 70.809 141.427,70.871 141.498,70.538 139.806 C 68.868 131.318,69.447 122.018,72.416 109.621 C 73.261 106.094,72.564 106.434,79.566 106.132 C 81.198 106.061,82.557 105.980,82.587 105.950 C 82.641 105.896,93.325 105.933,94.227 105.991 M68.406 107.509 C 68.322 107.645,68.198 108.231,68.130 108.813 C 68.061 109.394,67.838 110.652,67.633 111.608 C 65.935 119.539,65.891 130.873,67.532 137.912 C 68.120 140.434,68.152 140.886,67.722 140.618 C 67.551 140.511,67.188 140.392,66.915 140.352 C 66.642 140.312,66.251 140.208,66.046 140.121 C 65.841 140.034,65.461 139.922,65.202 139.872 C 64.159 139.671,61.185 138.712,60.894 138.483 C 60.723 138.348,60.583 138.322,60.583 138.423 C 60.583 138.525,60.416 138.469,60.211 138.299 C 60.006 138.129,59.839 138.052,59.839 138.127 C 59.839 138.241,56.700 137.193,55.369 136.636 C 55.164 136.550,54.941 136.461,54.873 136.437 C 54.804 136.413,54.581 136.323,54.376 136.237 C 53.930 136.048,52.565 135.503,52.390 135.443 C 52.322 135.420,52.098 135.330,51.893 135.244 C 51.433 135.049,50.076 134.507,49.907 134.451 C 48.780 134.073,43.211 131.363,42.396 130.795 C 42.020 130.534,41.713 130.397,41.713 130.491 C 41.713 130.586,41.574 130.549,41.403 130.411 C 41.232 130.272,40.673 129.923,40.161 129.635 C 37.720 128.264,37.324 128.030,36.709 127.594 C 36.347 127.336,35.977 127.126,35.889 127.126 C 35.381 127.126,34.105 125.983,34.362 125.759 C 35.569 124.706,37.614 123.062,38.858 122.143 C 39.677 121.538,40.626 120.791,40.966 120.484 C 41.306 120.177,41.674 119.926,41.784 119.926 C 41.893 119.926,42.284 119.646,42.653 119.305 C 43.021 118.963,43.454 118.684,43.614 118.684 C 43.775 118.684,43.944 118.592,43.989 118.479 C 44.222 117.900,51.389 113.625,55.245 111.764 C 60.280 109.334,64.439 107.826,67.163 107.442 C 68.488 107.255,68.560 107.259,68.406 107.509 M215.909 112.871 C 215.576 114.361,215.268 115.914,215.225 116.323 C 215.149 117.032,215.042 117.095,212.787 117.754 C 211.490 118.133,210.056 118.619,209.601 118.833 C 209.146 119.048,208.710 119.159,208.631 119.080 C 208.552 119.001,208.365 119.038,208.216 119.162 C 208.066 119.287,205.933 120.006,203.475 120.761 C 201.018 121.515,198.182 122.418,197.174 122.767 C 196.166 123.116,195.228 123.402,195.090 123.402 C 194.845 123.402,197.134 122.087,198.883 121.224 C 199.361 120.988,199.789 120.711,199.834 120.608 C 199.880 120.506,200.076 120.422,200.269 120.422 C 200.462 120.422,200.621 120.310,200.621 120.174 C 200.621 120.037,200.722 119.926,200.846 119.926 C 200.971 119.926,202.284 119.183,203.764 118.275 C 205.244 117.367,206.706 116.502,207.012 116.351 C 207.319 116.200,207.570 115.993,207.571 115.891 C 207.572 115.788,207.699 115.705,207.854 115.705 C 208.008 115.705,208.679 115.313,209.344 114.836 C 210.009 114.358,210.665 113.966,210.801 113.966 C 210.938 113.966,211.049 113.855,211.049 113.718 C 211.049 113.582,211.217 113.470,211.421 113.470 C 211.626 113.470,211.794 113.358,211.794 113.222 C 211.794 113.085,211.913 112.973,212.059 112.973 C 212.204 112.973,212.690 112.694,213.137 112.353 C 213.585 112.011,214.080 111.732,214.238 111.732 C 214.396 111.732,214.525 111.620,214.525 111.484 C 214.525 111.347,214.642 111.235,214.784 111.235 C 214.927 111.235,215.340 110.960,215.703 110.623 C 216.597 109.795,216.597 109.793,215.909 112.871 M277.508 118.593 C 277.486 118.612,276.444 118.700,275.193 118.791 C 273.942 118.881,272.561 119.057,272.123 119.182 C 271.686 119.308,271.257 119.396,271.170 119.380 C 271.083 119.363,270.689 119.482,270.295 119.644 C 269.900 119.807,269.519 119.881,269.448 119.810 C 269.377 119.740,269.197 119.778,269.048 119.895 C 268.899 120.013,268.330 120.249,267.784 120.421 C 266.385 120.861,263.481 122.116,263.191 122.408 C 263.122 122.477,262.228 122.968,261.204 123.500 C 260.180 124.032,259.045 124.674,258.683 124.927 C 258.320 125.181,257.945 125.388,257.848 125.388 C 257.751 125.388,256.509 126.170,255.087 127.126 C 253.665 128.082,252.402 128.864,252.280 128.864 C 252.158 128.864,252.022 128.952,251.976 129.061 C 251.898 129.245,246.955 132.596,246.441 132.812 C 246.310 132.868,245.920 133.175,245.575 133.495 C 245.229 133.816,244.805 134.078,244.633 134.078 C 244.461 134.078,244.320 134.190,244.320 134.327 C 244.320 134.463,244.153 134.575,243.948 134.575 C 243.743 134.575,243.575 134.687,243.575 134.823 C 243.575 134.960,243.472 135.071,243.345 135.071 C 243.103 135.071,240.225 136.958,239.650 137.494 C 238.586 138.486,239.843 138.088,242.197 136.687 C 243.691 135.799,245.003 135.071,245.113 135.071 C 245.223 135.071,245.313 134.960,245.313 134.823 C 245.313 134.687,245.481 134.575,245.686 134.575 C 245.891 134.575,246.058 134.463,246.058 134.327 C 246.058 134.190,246.187 134.078,246.345 134.078 C 246.503 134.078,246.987 133.808,247.421 133.477 C 247.855 133.146,248.604 132.654,249.086 132.383 C 249.568 132.112,250.230 131.740,250.556 131.557 C 250.882 131.373,251.204 131.167,251.273 131.098 C 251.341 131.030,251.732 130.807,252.142 130.602 C 252.551 130.398,252.942 130.174,253.011 130.106 C 253.079 130.037,253.470 129.817,253.880 129.616 C 254.289 129.416,255.071 128.961,255.618 128.606 C 256.164 128.251,257.505 127.521,258.597 126.984 C 259.690 126.448,260.621 125.925,260.666 125.822 C 260.712 125.720,260.879 125.636,261.039 125.635 C 261.198 125.635,261.887 125.350,262.570 125.002 C 263.733 124.411,269.820 122.484,270.639 122.449 C 270.844 122.440,271.515 122.362,272.129 122.277 C 273.165 122.132,275.180 122.067,276.560 122.132 C 277.132 122.160,277.127 122.181,276.259 123.340 C 274.918 125.129,272.011 129.457,270.520 131.884 C 270.381 132.110,269.674 133.284,268.949 134.491 C 268.224 135.698,267.498 136.905,267.335 137.172 C 262.280 145.497,258.830 153.808,255.838 164.867 C 255.377 166.574,254.998 168.442,254.998 169.019 C 254.997 170.218,255.123 170.138,250.279 172.020 C 248.845 172.577,245.940 173.719,243.824 174.557 C 241.707 175.395,239.863 176.099,239.727 176.122 C 239.590 176.145,239.423 176.226,239.354 176.301 C 239.137 176.541,236.670 177.529,236.288 177.529 C 236.085 177.529,235.882 177.618,235.837 177.726 C 235.791 177.833,235.140 178.160,234.389 178.452 C 233.637 178.743,232.408 179.230,231.657 179.532 C 230.906 179.835,230.068 180.173,229.795 180.282 C 229.522 180.392,228.774 180.711,228.133 180.992 C 227.492 181.273,226.899 181.502,226.816 181.502 C 226.685 181.502,225.734 181.898,223.836 182.744 C 223.563 182.865,222.781 183.201,222.098 183.490 C 221.415 183.779,220.521 184.168,220.112 184.354 C 218.394 185.136,217.538 185.475,217.281 185.475 C 217.131 185.475,217.008 185.587,217.008 185.723 C 217.008 185.860,216.832 185.971,216.616 185.971 C 216.401 185.971,215.411 186.363,214.418 186.840 C 213.424 187.318,212.455 187.713,212.264 187.717 C 212.074 187.722,211.701 187.889,211.436 188.090 C 211.171 188.290,210.792 188.454,210.594 188.454 C 210.396 188.454,209.775 188.668,209.214 188.928 C 208.653 189.189,207.747 189.591,207.200 189.823 C 206.654 190.054,205.537 190.552,204.718 190.929 C 201.836 192.255,201.399 192.433,200.641 192.584 C 200.220 192.669,199.876 192.830,199.876 192.943 C 199.876 193.057,199.485 193.223,199.007 193.312 C 198.529 193.402,198.138 193.566,198.138 193.676 C 198.138 193.787,197.775 193.955,197.331 194.050 C 196.887 194.145,196.397 194.324,196.242 194.449 C 196.086 194.574,195.025 195.011,193.883 195.420 C 192.741 195.830,191.583 196.267,191.310 196.393 C 189.483 197.234,185.369 198.883,185.098 198.883 C 184.918 198.883,184.454 199.041,184.067 199.234 C 183.060 199.736,181.784 200.273,180.591 200.695 L 179.556 201.062 179.674 200.282 C 179.738 199.854,180.054 197.452,180.376 194.945 C 181.015 189.965,180.997 190.012,182.250 189.854 C 184.504 189.570,189.645 188.314,189.944 187.975 C 190.012 187.897,190.962 187.387,192.055 186.840 C 193.147 186.294,194.078 185.764,194.124 185.661 C 194.169 185.559,194.310 185.475,194.437 185.475 C 194.563 185.475,195.223 185.084,195.903 184.606 C 196.583 184.128,197.243 183.737,197.370 183.737 C 197.496 183.737,197.637 183.652,197.683 183.549 C 197.728 183.445,198.268 182.973,198.883 182.500 C 199.497 182.026,200.058 181.580,200.129 181.509 C 200.200 181.437,200.658 181.010,201.146 180.560 L 202.033 179.742 203.685 180.604 C 204.594 181.078,205.338 181.421,205.338 181.366 C 205.338 181.311,205.902 181.599,206.591 182.005 C 207.280 182.411,207.902 182.744,207.974 182.744 C 208.045 182.744,208.591 183.079,209.187 183.489 C 209.782 183.898,210.333 184.233,210.410 184.233 C 210.488 184.233,211.096 184.624,211.761 185.102 C 213.028 186.013,213.532 186.174,213.532 185.670 C 213.532 185.079,207.355 179.525,204.931 177.935 L 204.151 177.423 205.246 175.857 C 213.043 164.702,209.022 153.326,197.890 155.042 C 197.548 155.095,196.724 155.206,196.058 155.289 C 195.393 155.372,194.753 155.499,194.637 155.571 C 194.520 155.643,194.115 155.749,193.736 155.807 C 192.023 156.068,189.696 156.737,189.696 156.968 C 189.696 157.108,189.532 157.160,189.331 157.083 C 189.131 157.006,188.908 157.037,188.837 157.153 C 188.766 157.268,188.403 157.439,188.031 157.533 C 187.659 157.626,186.848 157.926,186.228 158.199 C 185.609 158.472,184.711 158.864,184.233 159.070 C 183.755 159.276,183.035 159.595,182.632 159.778 C 181.982 160.074,181.823 160.058,181.228 159.634 C 180.182 158.889,178.695 159.133,177.112 160.307 C 176.677 160.630,176.195 160.894,176.042 160.894 C 175.888 160.894,175.823 160.993,175.898 161.114 C 175.973 161.235,175.874 161.467,175.678 161.630 C 174.641 162.491,173.806 170.301,174.174 175.699 C 174.365 178.502,174.399 178.332,172.644 183.237 C 171.359 186.827,169.582 191.210,166.854 197.517 C 163.397 205.507,163.229 205.835,162.585 205.809 C 162.269 205.796,161.061 205.858,159.901 205.946 C 158.740 206.034,153.489 206.152,148.231 206.208 C 138.213 206.315,137.959 206.330,134.575 206.991 C 133.414 207.217,132.271 207.420,132.035 207.441 C 131.799 207.463,131.529 207.557,131.435 207.651 C 131.341 207.744,130.976 207.822,130.623 207.823 C 130.270 207.824,129.662 207.991,129.273 208.194 C 128.883 208.397,128.464 208.502,128.342 208.426 C 128.219 208.350,128.119 208.384,128.119 208.500 C 128.119 208.617,127.684 208.828,127.151 208.970 L 126.183 209.228 126.020 207.345 C 125.789 204.666,124.701 197.971,124.283 196.648 C 124.089 196.034,123.539 194.190,123.062 192.551 C 121.176 186.076,117.367 178.235,114.849 175.646 C 114.705 175.498,114.364 175.072,114.091 174.699 C 113.598 174.027,110.432 170.785,109.084 169.572 C 108.697 169.224,107.682 168.453,106.828 167.860 C 105.975 167.266,105.276 166.679,105.276 166.554 C 105.276 166.429,105.164 166.396,105.028 166.480 C 104.891 166.565,104.779 166.544,104.778 166.433 C 104.777 166.323,104.470 166.053,104.095 165.835 C 103.721 165.616,102.492 164.867,101.366 164.170 C 100.239 163.473,99.317 162.971,99.317 163.054 C 99.317 163.137,99.122 163.044,98.883 162.847 C 98.644 162.650,97.443 161.995,96.214 161.391 C 94.984 160.786,93.923 160.232,93.855 160.158 C 93.786 160.085,93.451 159.995,93.110 159.958 C 92.768 159.921,92.366 159.727,92.216 159.527 C 92.066 159.327,91.886 159.221,91.816 159.291 C 91.746 159.361,91.398 159.307,91.043 159.172 C 89.608 158.627,90.243 159.418,91.929 160.279 C 95.190 161.941,96.942 162.929,98.138 163.780 C 98.787 164.241,99.421 164.618,99.545 164.618 C 99.670 164.618,99.810 164.705,99.855 164.810 C 99.901 164.916,100.776 165.605,101.800 166.341 C 102.824 167.078,103.923 167.914,104.242 168.198 C 112.038 175.152,116.115 182.079,119.012 193.296 C 120.741 199.987,121.036 201.867,121.317 207.952 L 121.477 211.434 120.019 212.109 C 119.216 212.480,118.113 213.044,117.567 213.362 C 116.574 213.941,112.598 216.084,111.548 216.607 C 111.241 216.759,110.990 216.968,110.989 217.070 C 110.988 217.173,110.874 217.256,110.736 217.256 C 110.599 217.256,109.533 217.871,108.369 218.622 C 107.205 219.373,106.144 219.988,106.012 219.988 C 105.881 219.988,105.773 220.082,105.773 220.197 C 105.773 220.312,105.382 220.617,104.904 220.874 C 104.426 221.131,104.035 221.404,104.035 221.480 C 104.035 221.556,103.676 221.831,103.237 222.090 C 102.155 222.729,101.246 223.517,99.193 225.596 C 94.931 229.912,94.931 234.052,99.193 235.360 C 99.739 235.528,100.410 235.760,100.683 235.877 C 100.956 235.993,101.962 236.268,102.917 236.487 C 107.223 237.474,110.372 237.710,112.207 237.185 C 112.810 237.012,113.359 236.926,113.426 236.993 C 113.493 237.060,113.670 237.019,113.819 236.902 C 113.969 236.784,114.538 236.544,115.084 236.368 C 120.016 234.777,123.869 228.993,125.252 221.105 C 125.870 217.581,125.802 217.686,127.782 217.173 C 128.724 216.928,129.827 216.683,130.234 216.626 C 134.988 215.967,139.767 215.983,146.493 216.679 C 151.514 217.199,159.705 216.490,164.742 215.098 C 168.185 214.147,170.870 213.303,171.737 212.900 C 172.170 212.699,172.870 212.465,173.294 212.380 C 173.717 212.296,174.124 212.129,174.197 212.010 C 174.815 211.010,174.661 216.033,173.641 230.157 C 173.447 232.848,174.151 232.479,174.713 229.595 C 175.650 224.784,177.284 215.854,177.651 213.532 C 178.191 210.113,178.145 210.232,179.078 209.834 C 179.524 209.644,180.391 209.275,181.006 209.014 C 182.731 208.281,182.919 208.195,186.096 206.710 C 187.734 205.944,189.372 205.154,189.734 204.955 C 190.097 204.756,190.562 204.593,190.769 204.593 C 190.975 204.593,191.181 204.510,191.227 204.407 C 191.273 204.305,191.980 203.901,192.800 203.510 C 193.619 203.119,194.606 202.644,194.992 202.455 C 195.379 202.265,195.854 202.110,196.047 202.110 C 196.241 202.110,196.400 201.999,196.400 201.862 C 196.400 201.726,196.521 201.614,196.670 201.614 C 196.819 201.614,197.664 201.279,198.549 200.869 C 199.435 200.459,200.263 200.124,200.390 200.124 C 200.517 200.124,200.621 200.012,200.621 199.876 C 200.621 199.739,200.742 199.628,200.890 199.628 C 201.037 199.628,202.061 199.181,203.164 198.634 C 204.266 198.088,205.309 197.641,205.481 197.641 C 205.653 197.641,205.831 197.557,205.876 197.455 C 205.958 197.271,208.771 195.855,211.670 194.538 C 212.489 194.166,213.383 193.742,213.656 193.595 C 214.360 193.217,215.265 192.792,216.201 192.397 C 216.645 192.210,217.008 191.973,217.008 191.870 C 217.008 191.767,217.140 191.682,217.301 191.682 C 217.462 191.682,219.892 190.555,222.701 189.178 C 228.485 186.343,228.378 186.396,229.050 186.019 C 229.323 185.866,230.106 185.502,230.788 185.211 C 231.471 184.919,233.160 184.133,234.542 183.464 C 235.924 182.795,237.172 182.247,237.315 182.247 C 237.458 182.247,237.612 182.163,237.658 182.061 C 237.703 181.958,238.355 181.576,239.106 181.212 C 241.876 179.866,244.792 178.523,244.940 178.523 C 245.142 178.523,247.078 177.652,248.827 176.776 C 249.598 176.389,250.297 176.140,250.379 176.222 C 250.461 176.304,250.528 176.240,250.528 176.081 C 250.528 175.922,250.643 175.791,250.784 175.791 C 250.925 175.791,251.846 175.393,252.832 174.907 C 253.818 174.420,254.888 173.915,255.211 173.785 L 255.797 173.548 255.654 175.228 C 253.980 194.947,257.396 216.119,263.552 224.175 C 264.469 225.375,266.447 227.159,266.945 227.235 C 267.872 227.375,271.136 226.325,271.136 225.886 C 271.136 225.783,271.265 225.698,271.424 225.698 C 273.075 225.698,278.763 219.465,280.916 215.298 C 286.338 204.800,285.274 184.999,278.905 177.894 C 278.661 177.621,277.927 176.764,277.275 175.989 C 275.896 174.351,273.044 171.992,270.391 170.296 C 267.223 168.270,267.360 168.491,268.912 167.909 C 269.657 167.630,270.902 167.110,271.679 166.755 C 272.455 166.399,273.173 166.108,273.273 166.108 C 273.373 166.108,274.135 165.784,274.965 165.389 C 275.795 164.993,276.921 164.531,277.467 164.363 C 278.014 164.195,278.572 163.971,278.709 163.865 C 278.845 163.760,279.460 163.540,280.074 163.377 C 280.689 163.213,281.643 162.876,282.194 162.626 C 282.745 162.376,283.500 162.095,283.872 162.002 C 284.244 161.908,284.610 161.733,284.685 161.611 C 284.760 161.490,285.003 161.390,285.225 161.390 C 285.447 161.390,286.083 161.180,286.638 160.924 C 287.513 160.519,288.339 160.170,288.765 160.025 C 288.940 159.966,290.305 159.421,290.751 159.232 C 290.956 159.145,291.179 159.063,291.248 159.049 C 291.316 159.035,291.484 158.954,291.620 158.868 C 291.924 158.678,295.267 157.677,295.544 157.694 C 295.653 157.701,295.989 157.551,296.289 157.362 C 296.589 157.172,297.330 156.873,297.937 156.697 C 298.543 156.520,299.326 156.258,299.675 156.113 C 300.024 155.969,300.422 155.834,300.559 155.813 C 300.695 155.792,300.975 155.707,301.179 155.624 C 301.384 155.541,302.083 155.281,302.731 155.046 C 303.380 154.811,303.911 154.516,303.911 154.390 C 303.911 154.264,304.012 154.223,304.137 154.300 C 304.469 154.506,305.152 154.186,305.152 153.825 C 305.152 153.627,305.378 153.557,305.773 153.633 C 306.228 153.720,306.394 153.644,306.394 153.350 C 306.394 152.863,306.444 152.865,305.180 153.311 C 304.615 153.511,304.070 153.692,303.969 153.715 C 303.869 153.738,303.675 153.794,303.538 153.839 C 303.402 153.885,300.552 154.712,297.207 155.677 C 293.861 156.643,290.717 157.591,290.221 157.784 C 289.724 157.978,289.249 158.068,289.165 157.984 C 289.082 157.900,289.013 157.948,289.013 158.091 C 289.013 158.233,288.231 158.553,287.275 158.801 C 286.319 159.049,285.537 159.342,285.537 159.452 C 285.537 159.562,285.224 159.652,284.842 159.652 C 284.459 159.652,284.040 159.752,283.911 159.874 C 283.781 159.996,282.222 160.514,280.447 161.024 C 278.672 161.535,276.901 162.114,276.513 162.311 C 276.125 162.507,275.747 162.608,275.674 162.535 C 275.600 162.461,275.306 162.565,275.021 162.765 C 274.735 162.965,274.331 163.129,274.122 163.130 C 273.914 163.131,273.447 163.286,273.084 163.475 C 272.274 163.898,270.816 164.389,270.615 164.307 C 270.534 164.273,270.297 164.387,270.089 164.560 C 269.880 164.733,269.109 165.052,268.375 165.268 C 267.640 165.485,266.897 165.778,266.723 165.920 C 266.549 166.063,266.336 166.108,266.249 166.021 C 266.162 165.935,265.970 165.959,265.820 166.074 C 265.138 166.603,263.912 166.831,263.243 166.554 C 262.873 166.400,262.495 166.264,262.404 166.253 C 261.937 166.194,262.037 165.534,263.230 160.801 L 264.524 155.671 266.686 154.190 C 268.743 152.781,273.619 150.091,273.619 150.365 C 273.619 150.436,273.926 150.324,274.302 150.116 C 275.146 149.650,280.850 147.983,282.135 147.827 C 282.654 147.764,283.362 147.605,283.708 147.473 C 284.054 147.342,284.428 147.290,284.538 147.358 C 284.649 147.427,285.194 147.322,285.750 147.126 C 286.306 146.930,287.072 146.797,287.452 146.831 C 287.833 146.865,288.675 146.757,289.323 146.591 C 289.972 146.425,290.503 146.349,290.503 146.422 C 290.503 146.494,290.669 146.416,290.872 146.247 C 291.493 145.732,291.028 145.482,289.677 145.604 C 286.693 145.875,285.120 146.030,284.420 146.122 C 284.010 146.176,283.060 146.293,282.309 146.381 C 281.558 146.469,280.874 146.584,280.788 146.637 C 280.703 146.689,280.095 146.797,279.437 146.876 C 278.779 146.955,278.167 147.065,278.076 147.121 C 277.985 147.177,277.437 147.283,276.857 147.355 C 276.278 147.428,275.675 147.568,275.518 147.667 C 275.361 147.765,274.961 147.883,274.628 147.929 C 274.296 147.975,273.570 148.209,273.015 148.450 C 272.459 148.691,271.502 149.099,270.888 149.356 C 270.273 149.614,268.869 150.281,267.768 150.840 L 265.766 151.855 266.709 149.424 C 268.745 144.174,272.019 137.479,275.215 132.026 C 276.317 130.146,277.332 128.415,277.469 128.178 C 277.607 127.941,278.231 126.965,278.857 126.009 C 282.963 119.734,283.029 118.765,279.357 118.628 C 278.363 118.590,277.531 118.575,277.508 118.593 M374.278 129.973 C 368.541 132.853,368.317 140.697,373.975 140.570 C 377.167 140.498,380.787 136.925,380.730 133.905 C 380.660 130.213,377.562 128.325,374.278 129.973 M229.475 135.613 C 229.242 135.705,228.694 135.789,228.258 135.799 C 227.822 135.808,227.397 135.928,227.312 136.065 C 227.228 136.201,226.895 136.313,226.573 136.313 C 226.251 136.313,225.615 136.499,225.160 136.727 C 224.705 136.955,224.122 137.245,223.864 137.371 C 216.467 140.997,211.971 147.990,211.934 155.928 C 211.861 171.502,217.120 178.287,227.809 176.409 C 229.095 176.183,234.856 174.563,235.364 174.285 C 235.579 174.167,236.313 173.837,236.996 173.550 C 238.564 172.893,239.723 172.363,240.906 171.763 C 241.418 171.503,241.839 171.381,241.841 171.492 C 241.843 171.604,241.927 171.583,242.027 171.446 C 242.128 171.309,242.489 171.071,242.831 170.917 C 244.157 170.318,251.403 166.722,251.521 166.604 C 251.589 166.536,251.980 166.314,252.390 166.112 C 253.794 165.419,254.742 164.742,254.746 164.432 C 254.750 164.019,254.241 164.052,253.646 164.502 C 253.381 164.702,253.012 164.867,252.825 164.867 C 252.639 164.867,252.018 165.079,251.445 165.338 C 250.872 165.597,249.901 165.954,249.286 166.133 C 248.672 166.311,248.113 166.530,248.045 166.619 C 247.976 166.709,246.245 167.262,244.196 167.848 C 242.148 168.434,240.344 169.012,240.188 169.133 C 240.032 169.254,239.572 169.395,239.166 169.446 C 238.760 169.498,237.547 169.789,236.470 170.094 C 235.394 170.399,234.233 170.687,233.892 170.733 C 231.167 171.102,230.012 171.187,228.118 171.159 C 226.922 171.141,225.749 171.040,225.511 170.935 C 224.965 170.695,224.794 170.647,224.339 170.608 C 223.707 170.555,221.552 168.270,221.031 167.101 C 218.964 162.464,219.662 150.876,222.265 146.627 C 223.559 144.516,226.224 142.555,228.678 141.910 C 229.241 141.762,230.814 141.447,230.912 141.463 C 230.981 141.474,231.554 141.539,232.186 141.608 C 234.400 141.850,236.003 143.284,237.495 146.362 C 239.296 150.075,240.016 149.275,231.409 153.133 C 230.931 153.347,229.510 154.008,228.252 154.601 C 226.994 155.194,225.912 155.680,225.849 155.680 C 225.732 155.680,222.833 156.962,221.788 157.475 C 221.220 157.755,221.079 158.044,221.415 158.244 C 221.619 158.364,223.644 157.796,224.829 157.285 C 225.239 157.109,226.245 156.779,227.064 156.552 C 227.883 156.325,229.280 155.901,230.168 155.609 C 231.055 155.318,231.865 155.061,231.968 155.038 C 232.070 155.015,232.182 154.974,232.216 154.945 C 232.250 154.917,232.606 154.841,233.007 154.776 C 233.407 154.711,234.203 154.444,234.775 154.183 C 235.348 153.923,236.305 153.596,236.902 153.456 C 243.020 152.031,243.648 150.986,242.075 144.838 C 241.063 140.881,237.756 136.225,235.928 136.185 C 235.833 136.183,235.640 136.108,235.501 136.019 C 234.814 135.580,230.321 135.277,229.475 135.613 M200.497 159.048 C 204.844 161.268,204.711 168.023,200.231 172.502 L 198.669 174.064 197.845 173.609 C 196.849 173.060,194.502 172.107,193.731 171.940 C 193.423 171.873,192.921 171.761,192.613 171.691 C 190.030 171.099,186.353 171.994,183.390 173.935 L 182.705 174.384 182.871 171.798 C 183.018 169.518,182.805 165.521,182.356 162.135 C 182.201 160.965,182.745 160.397,184.020 160.397 C 184.258 160.397,184.519 160.289,184.601 160.156 C 184.683 160.024,185.304 159.842,185.982 159.752 C 186.659 159.662,187.213 159.482,187.213 159.351 C 187.213 159.221,187.353 159.163,187.523 159.223 C 187.694 159.282,188.343 159.182,188.965 159.000 C 189.587 158.818,190.525 158.614,191.048 158.547 C 191.571 158.480,192.049 158.376,192.109 158.315 C 192.648 157.776,199.111 158.340,200.497 159.048 M89.184 158.813 C 89.406 159.034,89.720 159.132,89.885 159.030 C 90.232 158.815,89.759 158.421,89.146 158.415 C 88.843 158.412,88.849 158.478,89.184 158.813 M55.369 165.507 C 50.109 166.330,49.812 166.401,41.890 168.708 C 33.265 171.220,32.222 171.592,26.240 174.284 C 25.308 174.704,24.442 175.047,24.315 175.047 C 24.188 175.047,24.084 175.158,24.084 175.295 C 24.084 175.431,23.861 175.543,23.588 175.543 C 23.315 175.543,23.091 175.628,23.091 175.731 C 23.091 175.834,22.728 176.075,22.284 176.267 C 21.275 176.702,18.270 178.754,17.186 179.748 C 16.079 180.764,13.656 183.559,13.656 183.821 C 13.656 183.937,13.452 184.329,13.202 184.692 C 11.357 187.369,10.560 193.174,11.528 196.896 C 12.881 202.104,17.173 209.842,18.167 208.866 C 18.398 208.639,18.413 208.494,18.220 208.370 C 18.070 208.273,17.750 207.803,17.509 207.325 C 17.269 206.847,16.928 206.288,16.752 206.083 C 12.741 201.413,11.574 190.932,14.488 185.756 C 15.637 183.715,18.612 180.509,19.356 180.509 C 19.499 180.509,19.615 180.419,19.615 180.310 C 19.615 179.945,26.685 176.533,28.179 176.177 C 28.587 176.080,28.978 175.920,29.048 175.821 C 29.117 175.722,30.236 175.328,31.533 174.944 C 32.831 174.560,34.189 174.093,34.553 173.906 C 34.916 173.720,35.612 173.518,36.098 173.457 C 36.585 173.397,37.964 173.066,39.162 172.722 C 41.253 172.122,44.380 171.393,45.686 171.202 C 46.027 171.152,46.809 171.038,47.424 170.949 C 48.205 170.835,48.434 170.861,48.184 171.036 C 47.987 171.173,47.652 171.628,47.439 172.045 C 47.226 172.463,46.195 174.231,45.148 175.974 C 32.203 197.523,21.870 224.384,21.851 236.536 C 21.850 237.044,21.765 237.063,20.050 236.943 C 8.383 236.124,1.676 239.038,1.637 244.941 C 1.614 248.496,4.139 251.882,10.056 256.232 C 11.421 257.236,12.621 258.179,12.721 258.327 C 12.822 258.476,12.905 258.503,12.907 258.388 C 12.910 258.272,13.479 258.586,14.172 259.084 C 16.053 260.435,16.897 260.642,20.926 260.739 C 22.976 260.789,22.717 260.313,23.442 265.373 C 24.207 270.713,24.575 271.481,26.231 271.184 C 27.524 270.952,30.335 267.368,32.403 263.315 C 33.465 261.233,33.768 260.827,34.278 260.800 C 37.134 260.650,40.252 260.440,40.968 260.348 C 41.446 260.287,42.508 260.166,43.327 260.078 C 45.715 259.823,46.251 259.743,49.162 259.214 C 50.050 259.053,51.069 258.888,51.427 258.848 C 51.784 258.808,52.720 258.588,53.505 258.360 C 54.290 258.132,55.227 257.908,55.588 257.862 C 56.560 257.739,58.437 257.212,58.721 256.982 C 58.858 256.872,59.639 256.588,60.456 256.351 C 61.274 256.114,62.112 255.828,62.319 255.716 C 62.844 255.429,65.001 254.500,65.141 254.500 C 65.381 254.500,68.905 252.405,68.984 252.215 C 69.030 252.106,69.197 252.016,69.357 252.013 C 69.516 252.011,70.037 251.677,70.515 251.271 C 70.993 250.865,71.529 250.411,71.706 250.262 C 71.982 250.029,72.630 250.064,74.240 250.400 C 74.987 250.556,76.478 250.849,76.971 250.938 C 77.312 250.999,78.262 251.223,79.081 251.434 C 80.727 251.858,81.264 251.985,82.185 252.163 C 82.526 252.229,83.141 252.387,83.551 252.514 C 84.267 252.736,84.928 252.880,86.530 253.164 C 87.915 253.409,88.470 253.384,88.576 253.073 C 88.638 252.892,88.472 252.762,88.179 252.762 C 87.903 252.762,87.615 252.663,87.540 252.541 C 87.465 252.420,87.040 252.265,86.594 252.197 C 85.663 252.054,84.858 251.866,84.089 251.612 C 83.793 251.513,83.383 251.413,83.178 251.389 C 82.664 251.327,79.882 250.500,79.578 250.318 C 79.441 250.236,79.115 250.136,78.853 250.095 C 78.591 250.055,77.468 249.744,76.357 249.405 C 75.247 249.067,74.120 248.788,73.854 248.786 C 73.473 248.784,73.575 248.613,74.338 247.980 C 76.580 246.116,80.357 241.417,82.268 238.113 C 87.321 229.377,88.592 223.526,88.623 208.844 C 88.660 191.661,86.628 182.086,81.348 174.559 C 75.475 166.188,67.894 163.546,55.369 165.507 M165.948 168.886 C 165.421 169.338,164.907 169.836,164.806 169.994 C 164.667 170.209,164.346 170.199,163.526 169.952 C 160.449 169.026,156.054 169.210,154.562 170.327 C 154.426 170.429,153.885 170.651,153.361 170.820 C 152.512 171.093,150.783 171.981,148.256 173.442 C 147.792 173.710,147.051 174.236,146.610 174.612 C 146.168 174.988,145.737 175.295,145.652 175.295 C 144.686 175.295,138.092 183.366,137.664 185.072 C 137.336 186.379,138.976 187.165,140.815 186.582 C 141.191 186.462,141.196 186.540,140.871 187.483 C 139.429 191.668,140.222 197.165,142.593 199.420 C 145.605 202.285,152.620 203.473,155.680 201.636 C 168.284 194.069,174.234 177.667,166.580 171.589 L 165.189 170.484 165.711 169.902 C 165.997 169.581,166.437 169.090,166.687 168.810 C 167.447 167.961,166.967 168.010,165.948 168.886 M63.811 169.944 C 64.836 170.046,65.785 170.199,65.922 170.285 C 66.058 170.370,66.449 170.478,66.791 170.524 C 68.206 170.714,70.718 172.288,72.623 174.178 C 78.026 179.540,80.884 186.967,81.653 197.641 C 82.019 202.720,81.247 219.349,80.477 222.967 C 78.930 230.242,75.136 236.490,69.770 240.597 C 69.156 241.067,68.597 241.511,68.529 241.583 C 68.214 241.916,65.529 243.575,65.305 243.575 C 65.166 243.575,65.053 243.666,65.053 243.777 C 65.053 243.888,64.662 244.133,64.184 244.320 C 63.706 244.508,63.315 244.739,63.315 244.834 C 63.315 245.253,61.591 245.572,61.142 245.236 C 60.971 245.109,60.832 245.063,60.832 245.135 C 60.832 245.208,59.854 244.996,58.659 244.666 C 56.485 244.065,56.125 243.975,54.767 243.698 C 54.367 243.616,53.215 243.323,52.207 243.047 C 51.199 242.770,50.073 242.492,49.706 242.429 C 49.338 242.366,48.870 242.266,48.665 242.206 C 48.461 242.146,47.846 242.028,47.300 241.944 C 46.754 241.859,46.167 241.675,45.996 241.535 C 45.826 241.395,45.686 241.342,45.686 241.417 C 45.686 241.493,45.333 241.453,44.902 241.330 C 44.471 241.206,43.717 241.044,43.226 240.970 C 42.735 240.896,41.747 240.680,41.030 240.490 C 40.313 240.300,39.727 240.204,39.727 240.276 C 39.727 240.349,39.577 240.284,39.394 240.132 C 39.210 239.980,39.005 239.910,38.938 239.978 C 38.871 240.045,38.300 239.945,37.670 239.756 C 37.041 239.566,36.479 239.457,36.422 239.514 C 36.366 239.570,36.043 239.512,35.706 239.383 C 35.368 239.255,34.655 239.082,34.120 238.998 C 33.585 238.914,32.421 238.715,31.533 238.555 C 30.646 238.395,29.853 238.280,29.773 238.299 C 29.692 238.319,29.819 237.196,30.055 235.803 C 30.291 234.411,30.616 232.210,30.778 230.912 C 32.185 219.620,32.777 216.335,34.758 208.814 C 36.371 202.693,41.058 188.898,43.446 183.240 C 43.706 182.626,44.429 180.905,45.053 179.417 C 45.677 177.929,46.829 175.343,47.613 173.671 L 49.038 170.630 50.403 170.441 C 52.563 170.141,53.140 170.080,55.112 169.940 C 56.132 169.868,56.993 169.781,57.027 169.747 C 57.151 169.623,61.999 169.764,63.811 169.944 M264.128 177.201 C 270.937 181.941,273.796 185.917,275.143 192.523 C 277.600 204.578,275.754 212.955,269.537 217.960 C 268.986 218.404,268.613 218.083,267.277 216.015 C 262.712 208.949,260.218 197.048,259.749 180.101 L 259.590 174.354 260.708 174.976 C 261.322 175.318,262.861 176.319,264.128 177.201 M156.034 177.062 C 155.849 177.361,153.249 179.019,152.964 179.019 C 152.842 179.019,152.704 179.108,152.659 179.216 C 152.531 179.521,150.303 180.400,148.119 181.007 C 147.033 181.309,145.979 181.620,145.777 181.697 C 145.472 181.814,145.478 181.741,145.811 181.266 C 146.888 179.728,151.011 177.548,154.018 176.926 C 155.576 176.604,156.287 176.652,156.034 177.062 M192.406 176.753 C 193.295 176.786,193.356 176.957,192.536 177.113 C 192.271 177.164,191.740 177.334,191.356 177.492 C 190.971 177.649,190.541 177.778,190.400 177.778 C 190.129 177.778,189.449 178.069,186.550 179.427 C 185.570 179.885,184.602 180.261,184.398 180.261 C 184.194 180.261,183.977 180.400,183.916 180.571 C 183.855 180.742,183.724 180.806,183.624 180.714 C 183.382 180.490,185.878 178.026,186.347 178.026 C 186.550 178.026,186.716 177.942,186.716 177.838 C 186.716 177.341,189.428 176.600,190.937 176.685 C 191.279 176.705,191.940 176.735,192.406 176.753 M160.569 180.919 C 161.964 185.435,160.379 190.373,156.213 194.485 C 154.296 196.378,153.419 196.676,150.217 196.521 C 147.366 196.383,145.237 195.542,144.879 194.413 C 144.792 194.140,144.617 193.917,144.490 193.917 C 144.362 193.917,144.278 193.833,144.302 193.731 C 144.326 193.628,144.204 193.048,144.031 192.441 C 143.355 190.070,143.632 185.725,144.459 185.722 C 144.690 185.721,145.175 185.565,145.538 185.376 C 145.900 185.187,146.593 184.902,147.078 184.742 C 147.563 184.582,148.495 184.179,149.150 183.847 C 149.805 183.514,150.481 183.242,150.652 183.241 C 150.822 183.241,150.962 183.128,150.962 182.992 C 150.962 182.855,151.088 182.744,151.243 182.744 C 151.397 182.744,152.068 182.353,152.733 181.875 C 153.398 181.397,154.045 181.006,154.170 181.006 C 154.295 181.006,154.434 180.921,154.480 180.818 C 154.525 180.714,155.061 180.239,155.670 179.762 C 156.279 179.285,157.117 178.583,157.532 178.202 L 158.287 177.509 159.204 178.488 C 159.781 179.104,160.287 180.004,160.569 180.919 M174.901 195.315 L 175.034 202.785 173.364 203.232 C 172.446 203.478,171.639 203.751,171.570 203.839 C 171.502 203.926,170.552 204.198,169.460 204.442 C 168.367 204.687,166.831 205.031,166.045 205.206 L 164.615 205.526 165.081 204.749 C 165.777 203.588,169.172 197.688,169.922 196.338 C 170.283 195.689,170.872 194.628,171.232 193.979 C 171.592 193.330,172.234 192.181,172.659 191.425 C 173.085 190.669,173.707 189.528,174.043 188.890 C 174.378 188.252,174.679 187.755,174.710 187.787 C 174.742 187.819,174.827 191.206,174.901 195.315 M18.125 209.435 C 18.125 209.640,18.289 209.808,18.490 209.808 C 18.712 209.808,18.799 209.953,18.712 210.180 C 18.621 210.416,18.715 210.552,18.968 210.552 C 19.467 210.552,19.466 210.438,18.966 209.675 C 18.515 208.986,18.125 208.875,18.125 209.435 M120.399 221.453 C 118.419 229.954,115.452 232.425,109.202 230.776 C 108.539 230.601,107.971 230.464,107.940 230.473 C 107.909 230.481,106.906 230.169,105.713 229.780 L 103.542 229.073 106.209 227.320 C 107.676 226.356,109.659 225.178,110.615 224.702 C 111.570 224.226,112.408 223.780,112.477 223.712 C 112.545 223.644,113.319 223.253,114.197 222.843 C 115.344 222.308,120.086 219.922,120.825 219.508 C 120.842 219.499,120.650 220.374,120.399 221.453 M90.130 239.299 C 86.727 239.725,83.828 244.396,85.384 246.947 C 87.640 250.647,94.489 246.478,93.765 241.846 C 93.529 240.336,91.759 239.095,90.130 239.299 M21.749 246.182 C 21.807 248.504,21.910 250.990,21.978 251.707 L 22.102 253.011 21.293 253.042 C 19.671 253.106,18.798 253.011,18.465 252.735 C 18.278 252.580,18.125 252.530,18.125 252.625 C 18.125 252.719,17.801 252.565,17.404 252.283 C 17.008 252.000,16.615 251.769,16.531 251.769 C 16.304 251.769,13.545 249.935,13.449 249.721 C 13.404 249.618,13.208 249.534,13.015 249.534 C 12.821 249.534,12.663 249.423,12.663 249.286 C 12.663 249.150,12.495 249.038,12.291 249.038 C 12.086 249.038,11.917 248.954,11.916 248.852 C 11.915 248.749,11.519 248.396,11.035 248.066 C 9.904 247.296,8.494 245.931,7.632 244.771 C 6.812 243.668,6.813 243.679,7.511 243.452 C 7.818 243.352,8.125 243.245,8.194 243.216 C 9.133 242.805,9.733 242.595,9.878 242.625 C 9.976 242.645,10.223 242.592,10.428 242.507 C 11.329 242.134,14.069 241.921,17.712 241.941 L 21.643 241.962 21.749 246.182 M31.409 242.962 C 32.092 243.046,32.874 243.147,33.147 243.185 C 33.420 243.223,34.370 243.340,35.258 243.444 C 36.145 243.548,37.095 243.677,37.368 243.731 C 37.641 243.784,38.367 243.893,38.982 243.973 C 39.597 244.052,40.323 244.150,40.596 244.191 C 40.869 244.231,41.651 244.345,42.334 244.444 C 43.017 244.543,43.799 244.668,44.072 244.722 C 44.345 244.777,45.016 244.877,45.562 244.945 C 46.108 245.013,46.834 245.130,47.176 245.204 C 48.029 245.389,48.586 245.487,50.031 245.704 C 50.714 245.807,51.440 245.932,51.645 245.982 C 51.850 246.031,52.408 246.126,52.886 246.191 C 53.878 246.328,55.366 246.620,56.611 246.923 C 56.816 246.973,57.318 247.026,57.728 247.041 C 58.964 247.086,51.358 249.616,49.189 249.882 C 48.696 249.943,47.976 250.113,47.590 250.262 C 47.203 250.410,46.371 250.593,45.742 250.668 C 45.112 250.744,44.502 250.865,44.386 250.936 C 44.269 251.008,43.816 251.105,43.378 251.152 C 42.940 251.198,41.912 251.351,41.092 251.491 C 40.273 251.632,39.044 251.810,38.361 251.887 C 37.678 251.964,36.751 252.076,36.299 252.136 C 35.617 252.227,35.499 252.174,35.600 251.821 C 35.866 250.895,36.014 246.167,35.788 245.832 C 35.543 245.469,35.014 246.869,35.011 247.888 C 35.006 249.554,34.144 252.455,33.656 252.446 C 33.376 252.441,32.058 252.519,30.726 252.618 L 28.305 252.798 28.308 251.725 C 28.310 250.563,28.702 245.657,28.943 243.782 C 29.073 242.764,29.157 242.634,29.629 242.715 C 29.925 242.766,30.726 242.877,31.409 242.962 M30.601 261.660 C 29.996 262.615,28.262 264.929,28.151 264.929 C 28.100 264.929,28.057 264.007,28.057 262.880 L 28.056 260.832 29.538 260.915 L 31.020 260.999 30.601 261.660 " stroke="none" fill="#000000" fill-rule="evenodd"></path></g></svg>