<svg xmlns="http://www.w3.org/2000/svg" width="1363" height="372" viewBox="0.5 0 1363 372">
  <defs>
    <style>
      .cls-1 {
        fill-rule: evenodd;
      }
    </style>
  </defs>
  <path id="Color_Fill_1" data-name="Color Fill 1" class="cls-1" d="M450,0V3h9V4l6,1V7c6.3,0.015,8,1.775,14,2v3h7v2h2v2c3.553,0.072,6.785-.157,9-1v2h-1v3h3v2h2V20l4,1c-1.139,1.139,0,.4-2,1,0.723,2.762.279,2.237,3,3v1h3V24c1.135,0.844.145-.127,1,1,1.139,1.139.4,0,1,2h-2v3c5.537,0.718,3.351,2.831,11,3a9.749,9.749,0,0,1-1,4h4v4l3,1a11.876,11.876,0,0,0,1,5l3-1v5h4v2l-1,1h2c1.337,1.371,2.156,5.017,1,6h4a9.749,9.749,0,0,1-1,4h2c1.139-1.139,0-.4,2-1v4h-1v1h1v3l2,1v5a11.885,11.885,0,0,0,5-1v2c-1.881,2.018-.959,6.725,0,9h1v4h2v9h2c0.152,2.582.142,3.455,1,5h1v11h2v58l-2,1v10l-2,1v7l-2,1v4h-1c-0.843,1.434-.7,1.714-1,4h-2v8h2q-0.5,1.5-1,3c-1.139-1.139-.4,0-1-2h-3a34.218,34.218,0,0,1-1,8h-2v5a9.749,9.749,0,0,0-4,1q0.5,1,1,2l-2,1v3h-1c-1.4,1.877-2.241,2.34-3,5h-3q-1,3-2,6h-3v3h-4q-0.5,2-1,4h-4q-0.5,2-1,4c-3.986.463-3.555,1.689-8,2v2h-2l1,2h-7v2h-2v2H484v2h-8v1l-13-1c-1.412-2.663-2.03-4.22-2-9,1.135-.844.145,0.127,1-1h3l-1-5h1l1,3h1v-2h4l-1-5h1v1h5v-3l3-1v-1c-1.719-1.127-1.355-.633-2-3,1.135-.844.145,0.127,1-1,1.139,1.139.4,0,1,2h2l-1-3,2-1v-2h2v-4h3v-1c-1.891-1.938-.8-6,0-8l3,2v-8h2v-4h2V194h2V183l-2-1V165h-2v-4h-2v-5h-3v-1c-1.139-1.139-.4,0-1-2,1.719-1.127,1.355-.633,2-3l-2,1v-5h-2v-4h-3v-1h-1l1-2h-1c-1.139-1.139,0-.4-2-1v-3a9.749,9.749,0,0,1-4-1l1-3h-2v-2h-2v-2c-3.075-.626-3.462-1.6-7-2l-1-4h-7v-2a3.982,3.982,0,0,1-2-2c-2.755.435-11.331,1.222-16,0v-1h-4v1H421v1l-4-1v1l-3,1-1,2h-7q0.5,3.5,1,7h-2l1-3h-4c-1.34,2.041-1.637,1.878-5,2v2h-2v1h1c-1.46,2.379-1.851-.033-4,1v1h1v1h-2v2h-4l1,5h-1v-2h-4v3h2l-1,3c-1.139-1.139-.4,0-1-2h-2v3h2l-1,3c-1.139-1.139-.4,0-1-2h-4v4h-2v5h-1v1h-3v1h1v5l-4,1v8h-2v2h-2v6h-2v9h-1v2h-1v6h-2v42l2,1v5h1v7l2,1,1,3h1v3l3,2v2l2,1v2l2,1v1l2,1v2l4,3v2l2,1c2.195,2.322,5.027,4.544,6,8,4.321,1.17,3.43,3.15,6,5h2l3,4h2l2,3,6,2v1l3,1,1,2h3l1,2,5,1v1h2v1h4l1,2h7v1h2v1h9c4.228,1.2,9.784,2.5,15,1v-1h11l1-2h7l1-2h4v-1h2v-1h3v-1l6-2v-1l4-1,1-2h2l1-2h2l1-2h2l3-4h2l5-6h2l3-4,2-1v-2l8-7v-2l2-1q0.5-1.5,1-3h1v-2l2-1v-2l2-1v-2l2-1v-2h1v-2l2-1v-3h1c2.022-2.356.825-1.7,5-2,2.037,4.431,1.706,2.582,5,5l2,3,2,1v2l3,2v2l2,1v2l3,2v2l4,3v2l7,6c3.176,3.175,4.689,6.844,10,8v2c1.179,0.637,1.46,1.655,2,2h2v1h2l2,3,6,2q0.5,1,1,2l4,1v1l6,2v1h3v1h2v1h4v1h3v1h6v1h3v1h25v-1h2v-1h6v-1h2v-1h5v-1l5-1v-1l4-1v-1h3q0.5-1,1-2h3q0.5-1,1-2l3-1v-1l4-1q0.5-1,1-2h2l2-3h2l6-7h2q0.5-1,1-2l5-4v-2l7-6v-2l2-1v-2l3-2q0.5-1.5,1-3l2-1v-2h1v-2l2-1v-3l2-1c2.386-3.828.024-5.147,6-6q0.5,1.5,1,3h1v2l2,1v3l2,1v2l2,1v2l3,2v2h1q0.5,1.5,1,3l2,1v2l8,7v2l5,4q0.5,1,1,2h2l5,6,3,1q0.5,1,1,2h2l2,3h2q0.5,1,1,2l4,1q0.5,1,1,2h2v1h2v1h3v1h2v1l4,1v1h3v1h4v1h2v1h6v1h3v1h24v-1h3v-1h6v-1h3v-1h4v-1h2v-1h3v-1l4-1v-1h3q0.5-1,1-2l6-2v-1l3-1q0.5-1,1-2h2q0.5-1,1-2h2q0.5-1,1-2l3-2v-1h2v-1c1.745-1.441,2.416-2.281,5-3v-2h2c0.847-3.43,3.861-5.733,6-8l2-1v-2l3-2v-2l3-2v-2l2-1q0.5-1.5,1-3h1q0.5-2,1-4l2-1v-2h1v-2l2-1v-3h1c1.491-1.747.863-1.611,4-2,0.666,1.238,1.589,1.383,2,2v2l2,1v2l3,2q0.5,2,1,4h1q0.5,1.5,1,3l2,1v2l3,2v2l3,2v2l10,9,8,9h2l2,3,4,1q0.5,1,1,2h2l2,3,4,1q0.5,1,1,2h3q0.5,1,1,2h4c0.33,0.667.67,1.333,1,2h3v1h3v1h2v1h6v1h2v1l19,1v-1h13v-1h2v-1h6v-1h3v-1h3v-1h3c0.33-.667.67-1.333,1-2h3c0.33-.667.67-1.333,1-2h4c0.33-.667.67-1.333,1-2h2c0.33-.667.67-1.333,1-2h2c0.33-.667.67-1.333,1-2l4-1c0.33-.667.67-1.333,1-2h2c1.33-1.666,2.67-3.334,4-5h2c1.33-1.666,2.67-3.334,4-5h2v-1l3-2v-2q4.005-3.5,8-7v-2c0.67-.333,1.33-0.667,2-1v-2l3-2v-2c0.67-.333,1.33-0.667,2-1v-2c0.67-.333,1.33-0.667,2-1v-2c0.67-.333,1.33-0.667,2-1v-2h1v-2c0.67-.333,1.33-0.667,2-1v-3l3-2v-1h4c0.5,4.2,2.4,5.176,4,8v2c0.67,0.333,1.33.667,2,1v2c0.67,0.333,1.33.667,2,1v2l3,2v2l3,2v2l3,2v2l6,5,9,10h2c1.33,1.666,2.67,3.334,4,5h2c0.33,0.667.67,1.333,1,2l3,1v1h2c0.33,0.667.67,1.333,1,2h2c0.33,0.667.67,1.333,1,2h2v1h2v1h3c0.33,0.667.67,1.333,1,2h3v1h2v1l5,1v1h3v1h5v1h2v1h12v1l21-1v-1h2v-1h5v-1h3v-1h3v-1l4-1v-1h3c0.33-.667.67-1.333,1-2h4c0.33-.667.67-1.333,1-2h2c0.33-.667.67-1.333,1-2l4-1v-1l3-1c0.33-.667.67-1.333,1-2h2c1.33-1.666,2.67-3.334,4-5h2c1.33-1.666,2.67-3.334,4-5h2c0.33-.667.67-1.333,1-2h1v-2h2v-2h2c1.11-4.3,3.17-3.454,5-6v-2l3-2v-2l3-2v-2c0.67-.333,1.33-0.667,2-1v-2l3-2v-2c1.6-2.785,4.08-5.53,5-9h5c0.28,2.25.09,2.629,1,4h1v2h1v2c0.67,0.333,1.33.667,2,1v3l3,2v2c0.67,0.333,1.33.667,2,1v2c1.33,1,2.67,2,4,3v2c1.33,1,2.67,2,4,3v2l3,2c1.67,2,3.33,4,5,6l9,7V573H0V287a7.917,7.917,0,0,1,4,2v1l3,1,1,2h2l2,3h2l1,2h2l1,2h2l1,2h2v1l4,1v1h4v1h2v1c3.51,0.921,3.026-1.621,4-2l18,1c1.395-.235-0.36-0.612,1-1h7l1-2h6v-4c5.707,0.063,6.29-1.044,10-2v-2h5v-4h4l-1-2h5v-2l5-1,1-2c-1.719-1.127-1.355-.633-2-3h2v2a19.168,19.168,0,0,1,7-1c0.8-3.506,1.772-3.9,6-4q0.5-2,1-4h2v-2h3v-2h3l-1-2h5v-3h4v-3h-2l1-3c2.078,1.094,1.771,1.611,5,2,0.945-1.8,1.385-1.574,2-4,2.927-.684,3.274-1.113,4-4h2v-2h3q0.5-2,1-4h3v-3l4-1c-0.574-2.444-1.047-2.206-2-4,1.135-.844.145,0.127,1-1,1.139,1.139.4,0,1,2,2.927-.684,3.274-1.113,4-4h2q0.5-2,1-4h2v-2h2v-2h2v-1h-1c-1.889-.86,2-1,2-1q0.5-2,1-4l4-1c0.463-3.986,1.689-3.555,2-8h4v-4h2v-4h2q0.5-2,1-4l2,1v-5l3-1q-0.5-1.5-1-3h1v-1h3v-4h4l-1-1v-1h1v-4h2a7.73,7.73,0,0,1,2-2c1.9-3.676-2.509-3.394,3-5q-0.5-1.5-1-3h1v-1h3v-2h-1a26.7,26.7,0,0,0,1-4h3c0.191-1.985-.067-3.024,1-4h2c1.028-.971-1-1-1-1-1.156-1.567,1.588-.891,2-1v-4h1c1.351-1.96,2.231-2.289,3-5h2q0.5-3,1-6h2v-3h1v-1h3q-0.5-1.5-1-3c0.6-1.054,2.232-.807,3,0v-5c-1.139-1.139-.4,0-1-2l4,1v-1h1v-5h4l-1-1q0.5-1,1-2h-1v-4h1v3h2q0.5-3,1-6h1c0.579,0.416.147,1.633,2,1v-1h1v-3c-1.139-1.139-.4,0-1-2h2v2c1.135-.844.145,0.127,1-1h1q0.5-2.5,1-5h2v-4h4v-2h2V95h4c0.684-2.927,1.113-3.275,4-4q1-3,2-6h3V83h1l-1-3h1c0.845,0.622-.054,1.214,2,1l-1-2h2V77h3V76h-1l1-2h-1V73h1c2.264-1.862,3.2,1.187,6-3,1.139-1.139.4,0,1-2h3c-0.643-3.493-1.116-2.756,0-6,1.139,1.139.4,0,1,2h3q-0.5-2.5-1-5l4,1-1-1,1-3h4V54h3V53c-2.01-.574-0.865.12-2-1h2V51h4V47h5l1-3h-2l1-3c1.139,1.139.4,0,1,2h5q0.5-3,1-6h5q0.5-2,1-4h5V30h5c0.844-1.135-.127-0.145,1-1V26c3.543-.317,3.949-1.314,7-2V22h4V20h4V18h2V16h6V14h2V12h8c0.723-2.762.279-2.237,3-3V8l7-1,1-2h5V4h2V3h11l1-3h57Zm37,224v2h1v-2h-1Z"/>
</svg>
