<svg xmlns="http://www.w3.org/2000/svg" width="150" height="150" viewBox="9.406 9.406 481.188 481.188">
  <defs>
    <style>
      .cls-1 {
        fill-rule: evenodd;
      }
    </style>
  </defs>
  <path id="Color_Fill_1" data-name="Color Fill 1" class="cls-1" d="M32,7H439c19.77,0,32.329-1.47,44,7v1l3,2v2l3,2v2h1q0.5,2,1,4h1c2.469,6.235,1,17.126,1,25V444c0,8.123,1.566,19.551-1,26h-1l-1,4h-1v2l-3,2v2h-1l-2,3c-11.182,8.106-22.011,7-41,7H32v-1H29v-1H26v-1H24v-1H22l-2-3H18v-1l-3-2c-8.431-11.631-7-23.32-7-43V58c0-8.752-1.661-24.312,1-31h1l2-6,3-2V17h1l2-3h2l2-3h2V10h2V9l6-1V7Zm4,22c-1.672,2.038-5,3.365-6,6V425c0,12.7-.978,27.947,1,39a21.882,21.882,0,0,1,5,4H417c16.155,0,35.569,1.583,50-1a21.9,21.9,0,0,1,4-5V83c0-16.155,1.583-35.569-1-50a21.92,21.92,0,0,1-5-4H36Z"/>
  <path id="Color_Fill_4" data-name="Color Fill 4" class="cls-1" d="M277,246l12,1q-1,17.5-2,35c-1.073,3.562-1.876,4.625-2,10-18.825.212-32.277-4.683-50-5q0.5-6.5,1-13c10.04-.091,17.814,2.459,27,3v-1l-4-3v-2l-3-2v-2l-4-3v-2l-3-2v-2l-4-3v-2l-2-1q-0.5-1.5-1-3l-4-3v-2l-3-2v-2l-3-2v-2l-4-3q-0.5-1.5-1-3l-2-1v-2l-4-3v-2l-3-2v-2l-4-3q-0.5-1.5-1-3l-2-1v-2h-1q-0.5-1-1-2h-4c-2.053,1.945-4.786.979-8,2v1h-6c-13.815,3.958-43.329,3.1-56-1h-4v-1h-4v-1h-4v-1h-3v-1h-3v-1h-3a175.426,175.426,0,0,1-32-18l-6-7-6-5v-2l-3-2-1-4-2-1v-2H63l-1-4H61v-3H60v-3H59v-3H58v-4H57c-1.7-5.754.622-24.48,2-28h1l1-6h1l1-4h1v-2l2-1,1-4,3-2V97l6-5,6-7h2l3-4h2l1-2,3-1V77l6-2V74h2V73h2V72l6-2V69h3V68h2V67l9-2V64h4V63h4V62h4V61h6V60h7c10.124-2.845,34.121-1.607,43,1h6v1l12,2c17.322,6.174,34.184,14.194,46,26l5,6,2,1v2l3,2,1,4,2,1v2h1l1,4h1l3,13c0.955,3.025,2.338,16.558,1,21l-7,19-2,1-1,4-3,2v2l-6,5-6,7a158.344,158.344,0,0,1-28,16c0.674,1.269,1.564,1.354,2,2v2l3,2v2l4,3v2l3,2v2l4,3v2l2,1q0.5,1.5,1,3l4,3v2l2,1q0.5,1.5,1,3l4,3v2l3,2v2l3,2v2l4,3v2l3,2v2l4,3v2l2,1,2,4h1v-8c1.892-2.128-.113-5.753,1-9h1Q276.5,249,277,246ZM165,71c-3.352,2.781-11.107-.42-16,1v1h-7v1h-5v1h-4v1h-4c-27.573,9.916-50.238,22.248-59,51v7c-2.4,9.5,5.432,24.644,10,31l6,5,6,7h2l2,3h2l1,2,4,1q0.5,1,1,2l4,1v1l4,1v1h3v1h2v1l25,7,22,1v1l9-1c13.069-.15,23.679-2.311,33-6l9-2v-1h2v-1h3v-1l4-1v-1l4-1q0.5-1,1-2l4-1q0.5-1,1-2h2l2-3h2l3-4,9-8v-2l3-2v-2l2-2v-2h1v-2h1v-2h1v-3a34.7,34.7,0,0,0,0-25v-3h-1l-2-6h-1q-0.5-2-1-4l-3-2v-2l-8-7-4-5h-2l-2-3h-2l-1-2-4-1-1-2-4-1V84l-4-1V82h-3V81h-2V80l-25-7ZM317,291h36v1h7v1h6v1h4v1h4v1h4v1l9,2v1h2v1h3v1l6,2v1h2v1h2v1h2l2,2h2l1,2h2l1,2h2l3,4h2l8,9,4,3v2l3,2,1,4,2,1,7,19c1.323,4.467-.028,17.962-1,21l-3,13h-1l-1,4h-1v2l-2,1-1,4-3,2v2l-9,8-3,4h-2l-3,4h-2c-19.616,13.293-41.9,22-75,22-9.969,0-19.548.187-27-2h-6l-26-8v-1l-6-2v-1h-2v-1h-2v-1l-6-2v-1l-3-1-1-2h-2l-3-4h-2l-6-7-6-5v-2l-3-2q-0.5-2-1-4l-2-1q-0.5-2-1-4h-1v-2h-1l-3-13c-0.962-3.032-2.332-16.545-1-21,5.549-18.557,12.943-29.9,27-40l3-4h2l1-2h2l1-2,6-2v-1h2v-1h2v-1l6-2v-1h3v-1h2v-1h3v-1h3v-1h3v-1h4v-1h4v-1h4v-1C307.985,291.774,314.349,293.316,317,291Zm17,12c-3.352,2.781-11.107-.42-16,1v1h-7v1h-5v1h-4v1h-4c-27.573,9.916-50.238,22.247-59,51v7c-2.4,9.5,5.432,24.644,10,31l6,5,6,7h2l2,3h2l1,2,4,1,1,2,4,1v1l4,1v1h3v1h2v1l25,7,22,1v1l9-1c13.069-.15,23.679-2.311,33-6l9-2v-1h2v-1h3v-1l4-1v-1l4-1,1-2,4-1,1-2h2l2-3h2l3-4,9-8v-2l3-2v-2l2-2v-2h1v-2h1v-2h1v-3a34.7,34.7,0,0,0,0-25v-3h-1l-2-6h-1l-1-4-3-2v-2l-8-7-4-5h-2l-2-3h-2l-1-2-4-1-1-2-4-1v-1l-4-1v-1h-3v-1h-2v-1l-25-7Z"/>
</svg>
