<svg xmlns="http://www.w3.org/2000/svg" width="150" height="150" viewBox="9.406 9.406 481.188 481.188">
  <defs>
    <style>
      .cls-1 {
        fill-rule: evenodd;
      }
    </style>
  </defs>
  <path id="Color_Fill_1" data-name="Color Fill 1" class="cls-1" d="M32,7H439c19.77,0,32.329-1.47,44,7v1l3,2v2l3,2v2h1q0.5,2,1,4h1c2.469,6.235,1,17.126,1,25V444c0,8.123,1.566,19.551-1,26h-1l-1,4h-1v2l-3,2v2h-1l-2,3c-11.182,8.106-22.011,7-41,7H32v-1H29v-1H26v-1H24v-1H22l-2-3H18v-1l-3-2c-8.431-11.631-7-23.32-7-43V58c0-8.752-1.661-24.312,1-31h1l2-6,3-2V17h1l2-3h2l2-3h2V10h2V9l6-1V7Zm4,22c-1.672,2.038-5,3.365-6,6V425c0,12.7-.978,27.947,1,39a21.882,21.882,0,0,1,5,4H417c16.155,0,35.569,1.583,50-1a21.9,21.9,0,0,1,4-5V83c0-16.155,1.583-35.569-1-50a21.92,21.92,0,0,1-5-4H36Z"/>
  <path id="Color_Fill_6" data-name="Color Fill 6" class="cls-1" d="M62,247v2c3.967,2.217,7.815,5.872,11,9l2,3h2v1l3,2,4,5h2l8,9h2l8,9h2l4,5,4,3v1h2l5,6h1l1,2h2l8,9c3.393,2.464,5.277,1.473,6,7a9.11,9.11,0,0,0-5,6h-3c-1.462-2.211-2.323-1.468-4-3l-7-8h-2l-8-9h-2l-7-8H99l-8-9H89l-8-9H79l-8-9H69l-7-8H60l-8-9H50l-1-2c-2.343-2.27-3.512-2.581-4-7l12-10,3-4h2l7-8h2l6-7h2l7-8h2l6-7h2l7-8h2l6-7h2l7-8h2q0.5-1,1-2c2.581-2.44,4.68-5.391,9-6,2.281,3.832,6.284,4.536,7,10l-12,10-3,4h-2l-7,8h-2l-6,7h-2l-7,8H96l-6,7H88l-7,8H79l-2,3-4,3v1H71l-1,2C67.687,243.188,65.452,246.046,62,247Zm307-77h3c1.463,2.209,2.324,1.468,4,3l7,8h2l8,9h2l7,8h2l8,9h2l8,9h2l8,9h2l4,5,3,2v1h2l7,8,3,1,1,2c2.809,2.755,2.825,1.273,3,7l-16,13-5,6h-2l-7,8h-2l-6,7h-2l-7,8h-2l-7,8h-2l-6,7h-2l-2,3-4,3-1,2h-2l-1,2c-3.3,3.118-6.449,7.256-12,8-1.331-4.942-4.186-3.187-5-9l10-8,2-3c13.19-9.554,23.8-21.45,37-31l7-8h2l6-7h2l7-8h2l3-4-12-10-2-3h-2l-1-2h-1l-5-6h-2l-8-9h-2l-8-9h-2l-4-5-4-3v-1h-2l-5-6h-1l-1-2h-2l-8-9c-3.393-2.464-5.277-1.472-6-7A9.11,9.11,0,0,0,369,170Zm-31,1,9,2v1h1v4h-1q-0.5,2.5-1,5h-1v3h-1v3h-1v2h-1q-0.5,3-1,6h-1q-0.5,3-1,6h-1v2h-1q-1,4.5-2,9h-1v2h-1q-0.5,3-1,6h-1v3h-1v2h-1v3h-1v3h-1v3h-1v3h-1v2h-1q-1,4.5-2,9h-1v2h-1v3h-1v3h-1v3h-1v3h-1v2h-1q-1,4.5-2,9h-1v2h-1q-0.5,3-1,6h-1v3h-1v2h-1v3h-1q-1,4.5-2,9h-1v2h-1q-0.5,3-1,6h-1v3h-1v2h-1v3h-1c-2.321,5.774-.012,11.56-8,12-2.156-2.4-3.313-.809-5-2v-1h-1v-4h1l1-5h1v-3h1v-3h1v-2h1q0.5-3,1-6h1q0.5-3,1-6h1v-2h1q1-4.5,2-9h1v-2h1q1-4.5,2-9c10.769-24.585,18.278-52.4,29-77q0.5-3,1-6h1v-3h1v-2h1v-3Q335.5,177,338,171ZM221,197h-6V174a12.71,12.71,0,0,1,5-1C222.142,178.776,221.051,189.507,221,197Zm-52-4h3c3.328,5.67,13.325,10.836,15,17h-1l-3,4c-1.135-.844-0.145.127-1-1-1.835-1-14.581-13.488-15-15C166.216,195.174,168.237,194.488,169,193Zm95,0h3c1.094,2.078,1.611,1.771,2,5l-15,16c-1.135-.844-0.145.127-1-1-1.224-.689-4.711-2.64-4-5l4-3Zm-51,15c22.434-.347,30.405,8.484,38,23h1v2h1q1,8,2,16h-1v7l-7,14-2,1v2l-2,1v2h-1v2h-1v3h-1v14a13.3,13.3,0,0,0-4,3H210c-3.355,0-8.193.605-10-1-5.595-1.382-4.265-9.227-4-16h-1q-0.5-2.5-1-5h-1v-2l-2-1v-2l-2-1v-2l-2-1q-0.5-2-1-4h-1q-0.5-2-1-4h-1c-2.21-5.13-2.219-20.874,0-26h1q1-3,2-6h1v-2l3-2v-2l2-1,4-5h2q0.5-1,1-2l6-2v-1C207.615,208.866,211.014,209.761,213,208Zm-10,82h30V280h1l3-10,2-1v-2l2-1v-2l2-1v-2l2-1v-3h1v-3h1v-4h1c1.582-5.4-1.781-12.066-3-15v-3l-2-1q-0.5-2-1-4l-5-4-2-3h-2v-1l-6-2v-1h-5v-1h-8v1h-5v1l-6,2v1h-2l-4,5-3,2q-0.5,2-1,4l-2,1q-0.5,3-1,6c-0.941,2.534-3.385,7.389-2,12h1v4h1v3h1v3l2,1v2l2,1v2l2,1v2l2,1v2h1v2h1C202.933,278.368,202.921,283.771,203,290Zm15-65c-6.97,1.357-9,2.811-13,7l-2,1v2c-0.354.474-3.8,3.361-5,3v-1l-3-1c0.993-3.074.934-.955,0-4,3.008-1.988.448-.916,2-3l2-1,4-5h2q0.5-1,1-2l4-1v-1h7A15.682,15.682,0,0,1,218,225Zm-47,17v7H149a15.682,15.682,0,0,1-1-6C154.242,241.881,163.247,241.988,171,242Zm94,0c7.735-.076,16.784-0.153,23,1v5c-5.527,2.051-15.778,1.051-23,1v-7Zm-78,39v3c-3.874,2.369-14.037,15.88-17,14-3.2-.826-2.9-1.179-3-5,3.04-1.73,4.628-4.628,7-7,2.674-2.674,6.042-4.605,8-8C184.128,279.212,184.177,280.252,187,281Zm62,0h2c0.648-.323,1.456-3.138,3-3v1l15,14v4a7.49,7.49,0,0,0-3,2C262.38,298.1,249.492,285.133,249,281Zm-49,18h36a15.682,15.682,0,0,1,1,6c-8.031,2.96-26.709,1.05-37,1C198.8,302.961,198.854,302.026,200,299Zm-1,15v-5c8.031-2.96,26.709-1.05,37-1a12.71,12.71,0,0,1,1,5c-7.7,3.987-24.907,2.075-36,2C199.861,313.861,201,314.6,199,314Zm4,2c9.355-.1,23.508-1.78,31,1-3.838,8.643-9.939,10.287-23,10v-1h-2l-6-7h-1Z"/>
</svg>
