<svg xmlns="http://www.w3.org/2000/svg" width="150" height="150" viewBox="9.406 9.406 481.188 481.188">
  <defs>
    <style>
      .cls-1 {
        fill-rule: evenodd;
      }
    </style>
  </defs>
  <path id="Color_Fill_1" data-name="Color Fill 1" class="cls-1" d="M32,7H439c19.77,0,32.329-1.47,44,7v1l3,2v2l3,2v2h1q0.5,2,1,4h1c2.469,6.235,1,17.126,1,25V444c0,8.123,1.566,19.551-1,26h-1l-1,4h-1v2l-3,2v2h-1l-2,3c-11.182,8.106-22.011,7-41,7H32v-1H29v-1H26v-1H24v-1H22l-2-3H18v-1l-3-2c-8.431-11.631-7-23.32-7-43V58c0-8.752-1.661-24.312,1-31h1l2-6,3-2V17h1l2-3h2l2-3h2V10h2V9l6-1V7Zm4,22c-1.672,2.038-5,3.365-6,6V425c0,12.7-.978,27.947,1,39a21.882,21.882,0,0,1,5,4H417c16.155,0,35.569,1.583,50-1a21.9,21.9,0,0,1,4-5V83c0-16.155,1.583-35.569-1-50a21.92,21.92,0,0,1-5-4H36Z"/>
  <path id="Color_Fill_3" data-name="Color Fill 3" class="cls-1" d="M193,195v-2c-9.146-3.907-13.285-9.351-13-23h1q0.5-2.5,1-5h1l4-5h2v-2h6v-1l10,1c1.556,2.446,1.14.612,3,2l4,5h1c1.156,1.667-.006,2.286,2,4,0.119,3.771.871,10.953-1,13C212.1,189.954,202.351,194.284,193,195Zm197-3v3l-10-1v-2l-5-1c-3-5.052-6.916-5.418-7-14h-1c-0.348-.677,1.533-8.524,2-9,1.078-4.857,6.772-9.979,13-10,2.212-2.045,7.217-.221,11,0,1.457,2.306,4.49,2.9,6,5,1.693,2.359,1.853,5.166,4,7,0.333,10.307-2.369,19.1-10,21v1h-3Zm-203,4v2c3.215,0.77,2.155,1.508,6,2v2l3,1v1h3l2,3,4,1v1l10-1v-1c1.139-1.139.4,0,1-2h3q0.5,1,1,2h2v-1h7q0.5-1,1-2a1.528,1.528,0,0,1,2,1c2.6,0.426,3-1,3-1,3.48-.891,6.632.579,9,1q0.5,1.5,1,3c-3.235.7-5.914,3.028-8,5q-0.5,1-1,2l-3,1v6l-18,2v2c-1.989-.323-2-1-2-1H199q-0.5-1-1-2h-4q-0.5-1-1-2h-2v-1l-3-1v2h-2c-1.193,4.326-3.143,3.421-5,6v2h-1l-3,4-2,1v2l-3,2v2l-3,2v2l-2,1v2l-2,1v2l-2,1v2l-2,1q-0.5,3-1,6h-1q0.5,2.5,1,5h1v5l2,1v4h1v2h1v4h1v2h1v6h1c0.939,2.229.9,3.849,1,7-3.013,2.177-.441,1.261-2,4l-2,1v2l-2,2v2l-2,1v3l-2,1-2,6-2,1v2l-2,2v2h-1v2h-1q-0.5,2-1,4l-2,1q-0.5,2-1,4a14.781,14.781,0,0,1-12,8v-1h-3v-1h-1c-2.191-3.983-2.969-3.306-3-10,2.225-1.973,1.717-4.166,3-7h1v-4h1q0.5-2,1-4h1v-3h1v-2h1q0.5-2,1-4h1v-3h1v-2h1v-3l2-1v-3h1v-2h1v-2h1q-0.5-5-1-10h-1v-2h-1v-5l-3-2v-3h-1l-2,3h-1l-2,6h-1l-1,3-2,1v2l-2,1v2l-5,4v1l-3,1v2h-6l-1-3-5-1-1-2h-3l-1-2h-3v-1c-1.405-.86-1.721-0.738-4-1v-2H92v-2c-2.545-.078-3.525-0.1-5-1v-1H84l-1-2H80l-1-2H76l-2-3H71l-1-2H68v-1l-2-1V259c3.534-1.965,4.2-3.851,10-4,1.419,2.162,2.366,2.01,6,2v2c2.567,0.13,3.481.115,5,1v1h4v1c1.54,0.9,2.431.8,5,1v2h5v2a58.157,58.157,0,0,1,8,2v1l6-1c0.725-3.551,2.614-4.5,4-7q0.5-2,1-4l2-1q1-3,2-6l2-1q1-3,2-6h1q0.5-1.5,1-3l2-1v-2l2-2v-2l2-1q0.5-2,1-4l2-1q0.5-2,1-4l2-1v-2h1v-2h1c0.917-1.381.674-1.757,1-4h-6v1h-2v1H124v1h-4v2c-2.864-.428-7.855-2.082-12-1v1h-6v-1l-3-1v-1l-2-1v-9c2.749-1.584,1.8-2.47,6-3v-2h8q0.5-1,1-2h9v-1h2v-2l10,1v-1h2v-1h9v-1h2q0.5-1,1-2c1.557-.522,4.049,2.006,7,1v-1h2v-1c2.75-1.026,4.834.17,7-1q0.5-1,1-2h1v1h9c0.727-.612-0.335-1.467,1-1l2,3h3q0.5,1,1,2h2v1C184.363,195.915,184.757,195.714,187,196Zm176-7v2c3.748,0.8,3.9,2.445,8,3v2c2.241,0.276,2.644.083,4,1v1h2l1,2h2l2,3,4,1,2,3h3l1,2,11-1v-2c2.6,0.467,8.487,1.249,12,0v-1h2v-1l5,1v-1h9c0.622,2.328.912,2.352,2,4h1v9c-5.185,3.093-2.668,4.085-12,4v1h-3v2l-12-1v1h-4v1H388l-1,1v-1c-2.6-1.45-1.731-1.725-6-2v-2c-2.739-.644-2.276-1.309-5-2v1a6.749,6.749,0,0,0-4,5h-2c-0.954,3.608-3.874,5.459-6,8h-1v2l-3,2-1,3-2,1v2l-2,1-1,3h-1v2l-2,1-1,3h-1v3l-2,1v8c2.978,2.62.462,3.5,2,7l2,1v4h1v2h1c0.631,1.635,3.55,15.423,3,17h-1v2h-1v2h-1v2l-2,1v3l-2,1v3h-1l-1,3-2,1v3l-2,1v3l-2,1-1,3h-1v3l-2,1v2h-1v2l-2,2v2l-2,1-3,5-7,1v-1h-3v-1c-3.813-3.076-3.154-5.265-3-12,2.78-2.489,2.382-6.3,4-10h1v-2h1v-3h1l1-4h1v-3h1v-2h1v-3l2-1v-3h1v-2h1v-3l2-1v-9h-1v-2h-1v-5l-2-1q-0.5-3-1-6h-1c-1.139,1.139,0,.4-2,1l-7,13-2,1v2l-2,1v2h-1c-2.333,2.66-3.859,2.051-5,6h-6l-1-3-6-1-1-2h-3l-1-2h-2v-1h-2v-1h-2v-1h-2v-1h-2v-1h-2v-1h-2v-1l-4-1v-1l-4-1c-3.818-2.1-2.659-3.509-9-4v-2l-5-3v-2l-3-1v-4c3.079-.792,3.376-1.883,4-5l4-1v-1l6,1v1h4l1,2h4v2h5v2l9,2v2l13,3c0.637-1.237,1.64-1.435,2-2v-2h1v-2l2-1v-3l2-1,1-3h1v-3h1l1-3,2-1,2-6,2-1v-3l3-2,1-4,2-1,1-4,2-1v-2l2-1v-2c1.092-1.924,2.9-4,4-6a15.682,15.682,0,0,0-6-1c-3.987,3.955-10.115.182-16,2v1h-3v1l-19,1v-1h-2v-1l-2-1c-1.9-2.379,1.057-1.758-3-3v-4l4-3,1-3h3l1-2h7v-1h2v-1h9l1-2h10v-1h2v-1h9v-1h2v-1h8v-1h2l1-2c1.306,0.027,1.726,1.8,4,1v-1h2l1-2,8,1v-1h4Zm-89,15-3,1v1h-2l-1,2h-2l-2,3h-2l-1,2-3,1v1h-2q-0.5,1-1,2h-2q-0.5,1-1,2h-2q-0.5,1-1,2h-2q-0.5,1-1,2c-2.471,1.62-4,1.817-8,2-0.789-3.229-1.856-3.449-2-8l4-3v-1h2q0.5-1,1-2h2l4-5h2l3-4h2l1-2h2l3-4h2l3-4h1C269.085,197.206,272.782,198.825,274,204Z"/>
</svg>
