<svg xmlns="http://www.w3.org/2000/svg" width="150" height="150" viewBox="9.406 9.406 481.188 481.188">
  <defs>
    <style>
      .cls-1 {
        fill-rule: evenodd;
      }
    </style>
  </defs>
  <path id="Color_Fill_1" data-name="Color Fill 1" class="cls-1" d="M32,7H439c19.77,0,32.329-1.47,44,7v1l3,2v2l3,2v2h1q0.5,2,1,4h1c2.469,6.235,1,17.126,1,25V444c0,8.123,1.566,19.551-1,26h-1l-1,4h-1v2l-3,2v2h-1l-2,3c-11.182,8.106-22.011,7-41,7H32v-1H29v-1H26v-1H24v-1H22l-2-3H18v-1l-3-2c-8.431-11.631-7-23.32-7-43V58c0-8.752-1.661-24.312,1-31h1l2-6,3-2V17h1l2-3h2l2-3h2V10h2V9l6-1V7Zm4,22c-1.672,2.038-5,3.365-6,6V425c0,12.7-.978,27.947,1,39a21.882,21.882,0,0,1,5,4H417c16.155,0,35.569,1.583,50-1a21.9,21.9,0,0,1,4-5V83c0-16.155,1.583-35.569-1-50a21.92,21.92,0,0,1-5-4H36Z"/>
  <path id="Color_Fill_5" data-name="Color Fill 5" class="cls-1" d="M271,379a27.411,27.411,0,0,1,1-15h1v-5c2.341-7.585,3.009-18.443,0-26-10.826-5.924-33.546-4.508-47-2l-1,3h-1v2h-1v26c1.5,5.132,2.889,9.016,3,16l-2,1c-3.56,3.575-22.508,2-30,2l-69-1c-7.115,0-22.765,1.44-25-3v-7c2.059-2.216.883-4.821,2-8h1v-3h1v-4h1v-3h1v-4h1v-3h1q0.5-3.5,1-7h1v-4h1q0.5-4,1-8h1c1.81-6.109-.667-18.357-2-22q-0.5-3-1-6h-1q-0.5-2-1-4h-1v-2l-2-1v-2l-2-1v-2l-4-3v-2l-4-3v-2l-3-2v-2l-2-1-1-3H88l-1-4-2-1-2-6H82l-2-6H79v-3H78v-2H77l-1-6H75v-4H74v-4H73v-4H72v-7H71c-1.345-4.761.017-24.55,1-28v-7h1v-4h1v-5h1v-2h1l2-9h1l1-4h1v-2l2-1,1-4,2-1v-2l4-3v-2l6-5,7-8h2l3-4h2l2-3h2q0.5-1,1-2h2l2-2h2v-1h2v-1h2v-1l4-1v-1h3v-1h2v-1h3v-1h3v-1h3v-1h4v-1h4v-1h5v-1h5v-1h7v-1h11v-1h15v1h12v1h6v1h5v1h4v1h3v1h3v1h3v1l6,2v1h2v1l4,1q0.5,1,1,2c3.051,2.007,5.081,2.817,10,3,2.111-2.569,5.127-3.1,8-5l1-2h2v-1h2v-1l6-2v-1l9-2v-1l13-1v-1h33v1h8v1h6v1h5v1h4v1h4v1h3v1h3v1h3v1h2v1h3v1l4,1v1l4,1,1,2,4,1v1l3,1,1,2h2l1,2,3,1,5,6h2l1,2,4,3v2l6,5,1,3,2,1v2l2,1,1,3h1l1,4,2,1v3l2,1v3h1v2h1v3h1v3h1v3h1v3h1q0.5,5.5,1,11h1c1.5,5.337-.71,25.36-2,29h-1v3h-1v3h-1q-0.5,3.5-1,7h-1v2h-1q-0.5,3-1,6h-1v2h-1v3h-1l-2,6h-1v2h-1l-2,6-2,1-1,4-2,1v2l-3,2v2l-5,4v2l-4,3v2l-3,2v2l-3,2v2h-1l-1,4h-1v3h-1c-1.016,2.854-2.146,14.978-1,19h1v6h1v5h1v4h1v4h1v4h1v4h1q1,5,2,10h1c2.22,5.926,2.963,11.084,3,19l-3,1c-4.036,3.56-25.892,2-34,2-9.659,0-23.894.128-29-1H275v-1Zm-158-9H213a46.733,46.733,0,0,0-2-12V338c1.077-3.85,3.836-14.926,2-21-3.023-10-4.986-23-8-33-1.668-5.536.722-12.87,2-16h-1c-2.265-2.572-6.137-2.97-9-5l-5-6V246h1v-2l2-1v-2l4-3v-2l3-2v-2l4-3v-2l2-1v-2l2-1v-2l2-1v-2h1c1.107-2.476.945-10.66,0-14h-1c-1.192-4.247,0-24.789,1-28h1v-4h1q1-4.5,2-9h1q1-3,2-6h1v-2h1q0.5-2,1-4h1q0.5-1.5,1-3l2-1v-2l3-2,10-11c-9.074-4.157-17.6-8.812-28-12h-6c-4.147-1.191-20.94-3.712-27-2v1H167v1h-8v1h-5v1h-4c-21.179,7.524-38.982,16.267-51,33l-4,3v2l-2,1v2c-7.2,10.909-11,22.645-11,41v14l6,25h1v2h1l3,9,2,1,1,4,2,1v2l2,1v2l2,1q0.5,2,1,4h1l1,3,2,1v2l5,4v2l2,1v1l2,1v2l2,1v2h1q0.5,2,1,4h1q0.5,3,1,6h1v4h1v7c0.487,1.714,1.906,6.767,1,10h-1v8h-1v5h-1v4h-1v4h-1q-0.5,3.5-1,7h-1Q115.5,359.5,113,370ZM242,147q-0.5,1.5-1,3l7,6,25,24c-3.239-8.126-8.446-11.447-14-17l-7-8h-2q-0.5-1-1-2Zm-7,9v3l3,2v1c7.055,5.009,12.97,10.981,19,17l4,5h2l1,2,9,8v-3l-27-25-5-6h-2v-1h-1C236.063,156.713,239.066,157.211,235,156Zm36,52v-4c-5.206-3.038-8.825-8.826-13-13l-16-14c-3.525-3.525-6.625-9.531-12-11-0.844,1.135.127,0.145-1,1,0.844,1.135-.127.145,1,1,2.158,3.759,6.031,6.031,9,9l20,20C262.307,200.307,266.066,206.675,271,208Zm-30-15v2c6.431,3,10.248,9.263,15,14l10,8c2.687,2.678,4.611,6.012,8,8a30.293,30.293,0,0,0-6-8l-2-1v-2l-8-7-3-4h-2l-9-10h-2l-2-3-14-13v3C231.159,183.03,235.263,191.443,241,193Zm51,60c-6.845-1.834-8.171-10.108-15-12v-2c-6.426-3-10.255-9.256-15-14l-6-5q-0.5-1-1-2h-2l-18-19h-2q-0.5-1-1-2l-8-7v3c4.122,2.377,6.724,6.735,10,10,5.01,4.994,11,9,16,14l11,12h2l18,19h2l7,8c1.135-.844.145,0.127,1-1C292.139,253.861,291.4,255,292,253Zm-24-6v-2h-2l-18-19c-2.55-2.527-5.89-2.9-7-7-5.768-1.511-9.02-9.059-14-12v3l15,16c4.676,4.662,10.333,8.331,15,13l10,11h2l2,3a54.005,54.005,0,0,0,10,8v-1c1.135-.844.145,0.127,1-1C276.968,256.043,273.826,248.581,268,247Zm-43-26v3l54,51v-2l-9-10-8-7-3-4h-2l-19-20h-2q-0.5-1-1-2Zm-6,10v2l11,10q0.5,1,1,2c6.654,4.812,12.282,10.285,18,16l5,6h2l1,2,4,3c3.881,3.878,11.8,14.575,17,16v-2c-2.337-1.448-2.928-4.39-5-6l-3-1v-2c-4.939-1.332-8.688-7.689-12-11l-6-5-1-2h-2l-19-20h-2q-0.5-1-1-2C224.688,234.813,222.452,231.952,219,231Zm-6,8q-0.5,1-1,2h1c1.119,2.879.017,1.183,2,3v1h2l2,3,8,7,14,15h2l2,3,7,6,11,12h2l1,2,7,6v-4l-6-5v-1h-2l-9-10-9-8-3-4h-2l-19-20h-2q-0.5-1-1-2Zm37,53c3.547,0.942,3.855,2.862,6,5l6,5c3.626,3.626,6.033,7.632,11,10-3.25-5.569-9.527-9.527-14-14l-26-27h-2l-23-24c-1.135.844-.145-0.127-1,1h-1c0.844,1.135-.127.145,1,1,2.416,4.113,6.718,6.718,10,10l9,10h2v1l4,3,7,8,6,5,2,3,3,1v2Zm-9,4v2c3.546,0.955,3.851,2.858,6,5l11,10,4,5,4,1v-2c-5.129-2.762-8.083-7.083-12-11l-10-9-4-5h-2l-3-4-8-7-1-3c-2.108-2.113-4.371-2.22-6-5-1.135.844-.145-0.127-1,1h-1c0.844,1.135-.127.145,1,1,3.153,5.558,10.478,10.482,15,15C236.371,292.369,237.145,294.978,241,296Zm0,17v-2c-3.547-.937-3.857-2.864-6-5l-12-11v1c1.273,1.065,1.042,1.764,2,3h1v2l4,3v2h1l2,3h2l2,3,8,4C243.871,314.025,243.583,313.662,241,313Z"/>
</svg>
