<svg xmlns="http://www.w3.org/2000/svg" width="150" height="150" viewBox="9.406 9.406 481.188 481.188">
  <defs>
    <style>
      .cls-1 {
        fill-rule: evenodd;
      }
    </style>
  </defs>
  <path id="Color_Fill_1" data-name="Color Fill 1" class="cls-1" d="M32,7H439c19.77,0,32.329-1.47,44,7v1l3,2v2l3,2v2h1q0.5,2,1,4h1c2.469,6.235,1,17.126,1,25V444c0,8.123,1.566,19.551-1,26h-1l-1,4h-1v2l-3,2v2h-1l-2,3c-11.182,8.106-22.011,7-41,7H32v-1H29v-1H26v-1H24v-1H22l-2-3H18v-1l-3-2c-8.431-11.631-7-23.32-7-43V58c0-8.752-1.661-24.312,1-31h1l2-6,3-2V17h1l2-3h2l2-3h2V10h2V9l6-1V7Zm4,22c-1.672,2.038-5,3.365-6,6V425c0,12.7-.978,27.947,1,39a21.882,21.882,0,0,1,5,4H417c16.155,0,35.569,1.583,50-1a21.9,21.9,0,0,1,4-5V83c0-16.155,1.583-35.569-1-50a21.92,21.92,0,0,1-5-4H36Z"/>
  <path id="Color_Fill_2" data-name="Color Fill 2" class="cls-1" d="M189,50c3.942,1.186,1.27.254,3,3h1v2l2,1v2h1v2l2,1v2l3,2v2l5,4v2l6,5,1,2h2l2,3,3,1,1,2h2l1,2,4,1v1l6,2v1l9,2v1l9,1c11.625,3.512,45.169,3.305,57,0h10V96h10V95l26-1V93l27,1v1h7v1l8,1v1l6,1v1l5,1v1l4,1v1h2l1,2,4,1,1,2,3,1,2,3h2l1,2,7,6v2l4,3v2l3,2v2l2,1v2l2,1c1.761,2.788,1.514,5.812,4,8-1.007,6.4-4.7,12.784-7,18q-0.5,3-1,6h-1v2h-1q-1,4.5-2,9h-1v2h-1q-0.5,3-1,6h-1v2h-1q-1,4.5-2,9h-1v2h-1q-0.5,3-1,6h-1v2h-1q-0.5,3-1,6h-1v2h-1q-1,4.5-2,9c-10.529,24-18.491,50.98-29,75q-0.5,3-1,6h-1v2h-1q-1,4.5-2,9h-1v2h-1q-0.5,3-1,6h-1v2h-1q-1,4.5-2,9h-1v2h-1v3h-1v3h-1v2h-1v3h-1v3h-1l-1,5h-1v-1c-1.805-1.572-.861-1.979-2-4h-1v-2h-1l-1-3-2-1v-2l-2-1v-2l-3-2v-2l-6-5-8-9h-2l-1-2h-2l-1-2-3-1v-1l-4-1v-1l-4-1v-1h-3v-1h-2v-1h-3v-1h-4v-1h-4v-1h-6v-1l-35-1v1H258v1H247v1h-9v1l-23,1c-3.869,1.072-26.855,2.458-32,1v-1l-13-1v-1l-8-1v-1h-3v-1l-5-1v-1l-4-1v-1l-4-1-1-2h-2l-1-2h-2l-2-3h-2v-1c-2.562-2.146-4.384-4.994-8-6l-3,11h-1q-0.5,3-1,6h-1v2h-1q-0.5,3-1,6h-1v2h-1q-1,4.5-2,9h-1v2h-1v3h-1v3h-1v2h-1v3h-1q-0.5,3-1,6h-1v2h-1q-0.5,3-1,6h-1v2h-1q-0.5,3-1,6h-1v2h-1q-1,4.5-2,9H98v2H97l-1,6H95v2H94l-1,6H92v3H91v2H90v3H89v3H88v2H87l-1,6H85v2H84l-2,9H81v2H80l-1,6H78v2H77c-0.88,2.011-1.615,9.18-3,10H71v-1l-6-1v-1H62v-1H60v-1H57c-2.227-.9-4.176-2.38-7-3ZM351,202c11.126,1.853,20.214,6.82,28,12h2l1,2h2l1,2h2l2,3,1-1h1q0.5-3,1-6h1v-2h1v-3h1v-3h1v-2h1q4-12,8-24l-5-3-1-2h-2l-1-2-4-1-1-2-4-1v-1l-4-1v-1h-3v-1h-2v-1h-3v-1c-3.137-1.139-5.818.086-8-2-1.139-1.139-.4,0-1-2h1q0.5-2.5,1-5h1v-3h1v-3h1v-3c2.768-6.374,6.422-13.379,8-21-2.232-.842-5.438-1.029-9-1-1.805-1.606-6.646-1-10-1H334l-14,37h33v1c3.262,1.79,9.477-1.294,13,2h-1q-0.5,3-1,6h-1v2h-1v3h-1v3h-1v2h-1Q355,190,351,202Zm-47-1a21.447,21.447,0,0,1-2,8h-1q-1,4.5-2,9h-1v2h-1l-7,21c15.55-.128,32.142-0.374,45,2a21.562,21.562,0,0,1-2,8h-1q-1,4.5-2,9h-1v2h-1q-0.5,3-1,6h-1v2h-1v3c-1.094,2.683-2.516,4.25-3,8,5.248,0.048,7.6,1.592,11,3l5,1v1h2v1l5,1,1,2,4,1,1,2h2l1,2h2l2,3,3,1v-1c3.105-2.811,2.274-7,4-11h1v-2h1q0.5-3,1-6h1v-2h1q0.5-3,1-6h1v-3h1l2-6h-1c-1.75-2.046-3.711-2.387-6-4l-2-3-4-1-1-2h-2l-2-2h-2v-1h-2v-1h-2v-1h-3v-1h-3v-1h-3v-1h-5v-1h-1v-3h1q0.5-2.5,1-5h1v-3h1v-3h1v-2h1q1-4.5,2-9h1v-2h1q0.5-3,1-6h1a23.463,23.463,0,0,0,2-8l-14-1v-1h-8c-7.927-.014-16.5.409-23,1a21.543,21.543,0,0,1,2-8h1q5.5-16.5,11-33l-47,4,13-37c-10.668-.057-25.115,1.57-34-1h-9v-1h-2v1c-2.657,2.4-1.513,4.563-3,8h-1v2h-1q-0.5,3-1,6h-1v3h-1v2h-1v3h-1v3h-1l-3,9h1v1h7c10.5,2.991,25.6,1.083,38,1v1h-1q-0.5,2.5-1,5h-1v3h-1v3h-1v2h-1q-0.5,3-1,6h-1v2h-1v3h-1v3h-1v3h-1l-3,9h1v1h2v-1h11v-1ZM186,144c-0.954,5.431-4.085,10.6-6,15q-0.5,3-1,6h-1v3h-1v2h-1v3h-1v3h-1q-1,4.5-2,9c1.263,0.666,1.371,1.581,2,2h2q0.5,1,1,2h2l2,3,4,1q0.5,1,1,2l4,1v1h2c5.266,2.771,11.441,5.537,19,6,0.7-3.968,2.739-6.856,4-10q0.5-3,1-6h1v-2h1v-3h1v-3h1v-2h1q0.5-3,1-6c1.319-3.287,2.631-4.144,3-9-9.138-.247-15.841-4.667-22-8l-4-1q-0.5-1-1-2h-2q-0.5-1-1-2h-2q-0.5-1-1-2h-2v-1A8.329,8.329,0,0,0,186,144Zm24,60-10,30h-1v3h-1q-1,3.5-2,7h1c2.088,1.841,5.691.08,9,1,9.16,2.548,24.054,1.09,35,1-0.314,3.763-1.936,5.35-3,8q-0.5,3-1,6h-1v2h-1v3h-1v3c-1.987,4.543-4.8,9.484-6,15l48-4,13-37-48,4v-1c2.211-2.045.807-2.116,2-5h1v-3h1v-2h1v-3h1v-3h1v-2h1v-3h1q0.5-3,1-6h1v-2h1v-3c1.086-2.679,2.549-4.245,3-8l-25,1v-1Zm-15,40-7-1v-1h-4v-1h-2v-1h-3v-1h-2v-1h-2v-1h-2v-1l-4-1v-1l-3-1q-0.5-1-1-2c-3.452-2.319-5.823-2.187-8-6h-1a40.141,40.141,0,0,1-2,8h-1v2h-1q-0.5,3-1,6c-2.815,6.446-7.027,13.84-8,22l3,2v1h2l2,3h2l1,2,4,1,1,2,12,4v1c3.783,1.5,7.533,1.6,11,3v-1c3.139-2.835,2.214-5.888,4-10h1v-2h1q1-4.5,2-9h1v-2h1q0.5-3,1-6h1A23.394,23.394,0,0,0,195,244Z"/>
</svg>
